<?xml version="1.0" standalone="no"?>
<!DOCTYPE svg PUBLIC "-//W3C//DTD SVG 1.1//EN" "http://www.w3.org/Graphics/SVG/1.1/DTD/svg11.dtd" >
<svg xmlns="http://www.w3.org/2000/svg" xmlns:xlink="http://www.w3.org/1999/xlink" version="1.1">
<metadata>
Created by FontForge 20150318 at Tue Aug 11 08:09:46 2015
 By uniteet7
Licencja dla: Wunderman Polska Sp. z o.o. Polish modification by Pawel Kenig 2006; KENTYPE. Copyright (c) The Font Bureau, Inc, 2000. All rights reserved.
</metadata>
<defs>
<font id="InterstatePlBold_0" horiz-adv-x="800" >
  <font-face 
    font-family="InterstatePlBold_0"
    font-weight="700"
    font-stretch="normal"
    units-per-em="1000"
    panose-1="2 0 8 3 3 0 0 2 0 4"
    ascent="800"
    descent="-200"
    x-height="525"
    cap-height="700"
    bbox="-62 -193 1385 910"
    underline-thickness="20"
    underline-position="-113"
    unicode-range="U+0020-FB02"
  />
<missing-glyph horiz-adv-x="280" 
 />
    <glyph glyph-name="fi" unicode="fi" horiz-adv-x="645" 
d="M583 647q0 -32 -23.5 -55.5t-55.5 -23.5t-55.5 23.5t-23.5 55.5t23.5 55.5t55.5 23.5t55.5 -23.5t23.5 -55.5zM338 600q-24 11 -48 11q-30 0 -40.5 -9.5t-10.5 -32.5v-44h89v-130h-89v-395h-138v395h-63v130h63v63q0 72 38 105t112 33q51 0 87 -15v-111zM573 0h-138v525
h138v-525z" />
    <glyph glyph-name="fl" unicode="fl" horiz-adv-x="645" 
d="M573 0h-138v660l138 69v-729zM338 600q-24 11 -48 11q-30 0 -40.5 -9.5t-10.5 -32.5v-44h89v-130h-89v-395h-138v395h-63v130h63v63q0 72 38 105t112 33q51 0 87 -15v-111z" />
    <glyph glyph-name=".notdef" horiz-adv-x="280" 
 />
    <glyph glyph-name=".null" horiz-adv-x="0" 
 />
    <glyph glyph-name="nonmarkingreturn" horiz-adv-x="333" 
 />
    <glyph glyph-name="space" unicode=" " horiz-adv-x="290" 
 />
    <glyph glyph-name="exclam" unicode="!" horiz-adv-x="340" 
d="M240 412l-23 -192h-94l-23 192v288h140v-288zM255 74q0 -35 -25 -60t-60 -25t-60 25t-25 60t25 60t60 25t60 -25t25 -60z" />
    <glyph glyph-name="quotedbl" unicode="&#x22;" horiz-adv-x="528" 
d="M471 700l-35 -327h-95l-35 327h165zM222 700l-35 -327h-95l-35 327h165z" />
    <glyph glyph-name="numbersign" unicode="#" horiz-adv-x="740" 
d="M690 140h-120v-140h-122v140h-156v-140h-122v140h-120v115h120v190h-120v115h120v140h122v-140h156v140h122v-140h120v-115h-120v-190h120v-115zM448 255v190h-156v-190h156z" />
    <glyph glyph-name="dollar" unicode="$" horiz-adv-x="655" 
d="M600 212q0 -183 -198 -213v-99h-140v99q-143 24 -209 122l101 90q69 -80 179 -80q64 0 93 16t29 55q0 34 -30 53.5t-126 41.5q-54 13 -89.5 26.5t-67.5 37t-47 59.5t-15 86q0 77 50 127.5t132 66.5v100h140v-101q104 -21 183 -103l-101 -98q-69 72 -159 72
q-100 0 -100 -58q0 -33 27.5 -48.5t113.5 -35.5q40 -9 67.5 -17.5t62 -26t55 -38.5t35 -55.5t14.5 -78.5z" />
    <glyph glyph-name="percent" unicode="%" horiz-adv-x="999" 
d="M407 494q0 -98 -52.5 -158t-133.5 -60t-132 58.5t-51 157.5q0 101 51 160t134 59q84 0 134 -58.5t50 -158.5zM774 700l-429 -700h-121l429 700h121zM961 207q0 -98 -52.5 -158t-133.5 -60t-132 58.5t-51 157.5q0 101 51 160t134 59q84 0 134 -58.5t50 -158.5zM295 492
q0 126 -73 126q-72 0 -72 -124q0 -126 73 -126q35 0 53.5 33t18.5 91zM849 205q0 126 -73 126q-72 0 -72 -124q0 -126 73 -126q35 0 53.5 33t18.5 91z" />
    <glyph glyph-name="ampersand" unicode="&#x26;" horiz-adv-x="700" 
d="M688 0h-160l-53 57q-83 -68 -204 -68q-110 0 -170 46.5t-60 139.5q0 71 36 118.5t107 82.5l-18 20q-61 68 -61 142q0 83 58.5 128t149.5 45q61 0 108 -17.5t101 -55.5l-67 -101q-67 50 -146 50q-31 0 -48.5 -12t-17.5 -34q0 -33 37 -76l193 -220q26 54 49 116l113 -36
q-37 -111 -79 -175zM395 144l-137 150q-77 -40 -77 -107q0 -35 27 -54.5t79 -19.5q65 0 108 31z" />
    <glyph glyph-name="quotesingle" unicode="'" horiz-adv-x="284" 
d="M227 700l-35 -327h-100l-35 327h170z" />
    <glyph glyph-name="parenleft" unicode="(" horiz-adv-x="370" 
d="M327 -48l-90 -62q-83 92 -128 186.5t-45 223.5q0 131 43.5 226t129.5 190l90 -62q-119 -154 -119 -349q0 -112 30 -194.5t89 -158.5z" />
    <glyph glyph-name="parenright" unicode=")" horiz-adv-x="370" 
d="M306 306q0 -131 -43.5 -226t-129.5 -190l-90 62q119 151 119 349q0 112 -30 194.5t-89 158.5l90 62q83 -93 128 -187.5t45 -222.5z" />
    <glyph glyph-name="asterisk" unicode="*" horiz-adv-x="500" 
d="M467 415l-53 -91l-122 82l11 -146h-106l10 148l-122 -82l-52 90l141 64l-141 65l52 91l122 -83l-10 147h106l-11 -146l122 83l53 -91l-144 -65z" />
    <glyph glyph-name="plus" unicode="+" horiz-adv-x="613" 
d="M558 279h-183v-190h-137v190h-183v130h183v190h137v-190h183v-130z" />
    <glyph glyph-name="comma" unicode="," horiz-adv-x="272" 
d="M228 169l-84 -295h-94l15 295h163z" />
    <glyph glyph-name="hyphen" unicode="-" horiz-adv-x="407" 
d="M347 294h-287v138h287v-138z" />
    <glyph glyph-name="period" unicode="." horiz-adv-x="272" 
d="M230 83q0 -38 -28 -66t-66 -28t-66 28t-28 66t28 66t66 28t66 -28t28 -66z" />
    <glyph glyph-name="slash" unicode="/" horiz-adv-x="470" 
d="M466 790l-326 -880h-136l326 880h136z" />
    <glyph glyph-name="zero" unicode="0" horiz-adv-x="688" 
d="M638 352q0 -163 -77 -263t-218 -100q-140 0 -216.5 98.5t-76.5 262.5t77 262.5t217 98.5t217 -98t77 -261zM496 350q0 100 -38 162t-115 62q-76 0 -113.5 -61t-37.5 -161q0 -101 37.5 -163.5t114.5 -62.5t114.5 62t37.5 162z" />
    <glyph glyph-name="one" unicode="1" horiz-adv-x="385" 
d="M298 0h-139v506h-120v103q121 6 143 91h116v-700z" />
    <glyph glyph-name="two" unicode="2" horiz-adv-x="683" 
d="M611 0h-548q1 70 19 128.5t46 100.5t71 79t86.5 61.5t99.5 49.5q79 36 79 84q0 30 -28 50.5t-87 20.5q-111 0 -199 -84l-90 105q114 116 284 116q127 0 193.5 -50.5t66.5 -150.5q0 -80 -41.5 -125.5t-138.5 -91.5q-89 -40 -132 -78t-53 -80h372v-135z" />
    <glyph glyph-name="three" unicode="3" horiz-adv-x="645" 
d="M588 217q0 -111 -78.5 -169.5t-211.5 -58.5q-163 0 -277 134l106 86q44 -45 86.5 -64t97.5 -19q135 0 135 89q0 80 -103 80h-83v137h75q43 0 62.5 17.5t19.5 53.5q0 30 -28 50.5t-89 20.5q-78 0 -137 -59l-102 93q52 53 108.5 78t132.5 25q113 0 185 -51.5t72 -146.5
q0 -53 -23 -89t-58 -54q42 -15 76 -53.5t34 -99.5z" />
    <glyph glyph-name="four" unicode="4" horiz-adv-x="695" 
d="M654 143h-92v-143h-135v143h-383v126l371 431h147v-427h92v-130zM430 540q-22 -32 -62 -79l-100 -117q-31 -38 -66 -73q9 0 63.5 1t75.5 1h86v114q0 22 1.5 81.5t1.5 71.5z" />
    <glyph glyph-name="five" unicode="5" horiz-adv-x="668" 
d="M616 244q0 -123 -79.5 -189t-212.5 -66q-155 0 -273 75l68 119q104 -59 205 -59q73 0 111.5 29t38.5 86q0 52 -33 78t-86 26q-78 0 -138 -42l-133 49l24 350h466v-135h-337l-8 -121q59 32 147 32q114 0 177 -64.5t63 -167.5z" />
    <glyph glyph-name="six" unicode="6" horiz-adv-x="663" 
d="M620 229q0 -113 -83 -176.5t-212 -63.5q-124 0 -201 71t-77 212q0 59 13.5 116.5t48 117t86.5 104t135.5 73t187.5 28.5v-136q-244 0 -305 -164q64 44 160 44q110 0 178.5 -57.5t68.5 -168.5zM478 224q0 104 -140 104q-146 0 -146 -105q0 -49 35.5 -76.5t103.5 -27.5
q69 0 108 28t39 77z" />
    <glyph glyph-name="seven" unicode="7" horiz-adv-x="631" 
d="M569 565q-232 -226 -232 -565h-143q0 333 206 567h-356v133h525v-135z" />
    <glyph glyph-name="eight" unicode="8" horiz-adv-x="702" 
d="M644 217q0 -105 -79 -166.5t-214 -61.5q-136 0 -214.5 58.5t-78.5 162.5q0 120 111 170q-81 43 -81 123q0 100 73.5 154t189.5 54q111 0 187 -52.5t76 -149.5q0 -83 -81 -129q47 -21 79 -61.5t32 -101.5zM474 506q0 37 -29.5 60.5t-93.5 23.5q-62 0 -92.5 -23.5
t-30.5 -59.5q0 -35 32 -57.5t91 -22.5q123 0 123 79zM504 212q0 100 -153 100q-77 0 -115 -26t-38 -73t42.5 -74t110.5 -27q72 0 112.5 26t40.5 74z" />
    <glyph glyph-name="nine" unicode="9" horiz-adv-x="663" 
d="M616 428q0 -59 -13.5 -116.5t-48 -117t-86.5 -104t-135.5 -73t-187.5 -28.5v136q244 0 305 164q-64 -44 -160 -44q-110 0 -178.5 57.5t-68.5 168.5q0 113 83 176.5t212 63.5q124 0 201 -71t77 -212zM471 477q0 49 -35.5 76.5t-103.5 27.5q-69 0 -108 -28t-39 -77
q0 -104 140 -104q146 0 146 105z" />
    <glyph glyph-name="colon" unicode=":" horiz-adv-x="272" 
d="M230 442q0 -38 -28 -66t-66 -28t-66 28t-28 66t28 66t66 28t66 -28t28 -66zM230 83q0 -38 -28 -66t-66 -28t-66 28t-28 66t28 66t66 28t66 -28t28 -66z" />
    <glyph glyph-name="semicolon" unicode=";" horiz-adv-x="272" 
d="M230 442q0 -38 -28 -66t-66 -28t-66 28t-28 66t28 66t66 28t66 -28t28 -66zM221 169l-84 -295h-94l15 295h163z" />
    <glyph glyph-name="less" unicode="&#x3c;" horiz-adv-x="450" 
d="M388 28l-331 269v94l331 269v-172l-187 -143l187 -144v-173z" />
    <glyph glyph-name="equal" unicode="=" horiz-adv-x="613" 
d="M533 398h-453v129h453v-129zM533 161h-453v129h453v-129z" />
    <glyph glyph-name="greater" unicode="&#x3e;" horiz-adv-x="450" 
d="M393 297l-331 -269v172l187 143l-187 144v173l331 -269v-94z" />
    <glyph glyph-name="question" unicode="?" horiz-adv-x="584" 
d="M546 507q0 -115 -101 -165q-63 -29 -84.5 -53.5t-23.5 -68.5h-137q0 75 29.5 121t111.5 85q38 17 51.5 32.5t13.5 42.5q0 73 -119 73q-96 0 -175 -84l-90 105q111 116 265 116q119 0 189 -51.5t70 -152.5zM354 74q0 -35 -25 -60t-60 -25t-60 25t-25 60t25 60t60 25
t60 -25t25 -60z" />
    <glyph glyph-name="at" unicode="@" horiz-adv-x="836" 
d="M779 360q0 -107 -40.5 -156.5t-110.5 -49.5q-78 0 -117 55q-53 -56 -128 -56q-59 0 -101.5 36t-42.5 102q0 61 44 94.5t113 33.5q42 0 78 -19v25q0 24 -15 39t-44 15q-59 0 -107 -26l-37 66q64 39 144 39q71 0 114 -35t43 -100v-143q0 -67 62 -67q87 0 87 148
q0 121 -87.5 207t-215.5 86q-131 0 -217 -86.5t-86 -216.5q0 -132 85.5 -218t217.5 -86q73 0 130 29l24 -53q-72 -34 -154 -34q-157 0 -259 102t-102 259t102 259t259 102t259 -102.5t102 -248.5zM474 275v51q-31 18 -75 18q-63 0 -63 -53q0 -55 63 -55q53 0 75 39z" />
    <glyph glyph-name="A" unicode="A" horiz-adv-x="750" 
d="M710 0h-154l-55 156h-256l-55 -156h-150l268 700h136zM453 289l-45 127q-23 63 -35 109q-12 -46 -35 -109l-45 -127h160z" />
    <glyph glyph-name="B" unicode="B" horiz-adv-x="710" 
d="M657 226q0 -109 -67.5 -167.5t-181.5 -58.5h-318v700h321q103 0 162.5 -48t59.5 -137q0 -92 -74 -136q98 -44 98 -153zM491 504q0 67 -86 67h-178v-133h185q79 0 79 66zM513 224q0 90 -100 90h-186v-181h186q50 0 75 24t25 67z" />
    <glyph glyph-name="C" unicode="C" horiz-adv-x="670" 
d="M620 556l-130 -60q-40 76 -128 76q-77 0 -121 -61t-44 -161q0 -97 44.5 -159.5t121.5 -62.5q47 0 78 20.5t59 68.5l118 -70q-76 -158 -259 -158q-138 0 -222 98.5t-84 262.5q0 160 87 260.5t224 100.5q179 0 256 -155z" />
    <glyph glyph-name="D" unicode="D" horiz-adv-x="707" 
d="M657 350q0 -72 -20 -131t-54 -99t-80 -67.5t-97.5 -40t-106.5 -12.5h-209v700h219q160 0 254 -84t94 -266zM513 350q0 109 -50 161.5t-159 52.5h-74v-428h69q107 0 160.5 57t53.5 157z" />
    <glyph glyph-name="E" unicode="E" horiz-adv-x="650" 
d="M591 0h-501v700h486v-137h-346v-121h201v-136h-201v-169h361v-137z" />
    <glyph glyph-name="F" unicode="F" horiz-adv-x="625" 
d="M591 563h-361v-132h211v-136h-211v-295h-140v700h501v-137z" />
    <glyph glyph-name="G" unicode="G" horiz-adv-x="698" 
d="M640 271q0 -133 -78 -207.5t-203 -74.5q-138 0 -222 98.5t-84 262.5q0 160 87 260.5t224 100.5q103 0 166 -44.5t99 -130.5l-133 -55q-23 45 -52.5 68t-81.5 23q-77 0 -121 -61t-44 -161q0 -99 44.5 -161.5t121.5 -62.5q123 0 137 106h-111v131h251v-92z" />
    <glyph glyph-name="H" unicode="H" horiz-adv-x="747" 
d="M657 0h-140v294h-287v-294h-140v700h140v-268h287v268h140v-700z" />
    <glyph glyph-name="I" unicode="I" horiz-adv-x="340" 
d="M240 0h-140v700h140v-700z" />
    <glyph glyph-name="J" unicode="J" horiz-adv-x="650" 
d="M565 292q0 -142 -65.5 -222.5t-199.5 -80.5q-102 0 -171.5 56t-96.5 151l137 37q21 -55 51 -80t80 -25q125 0 125 160v412h140v-408z" />
    <glyph glyph-name="K" unicode="K" horiz-adv-x="720" 
d="M700 0h-168l-190 338l-112 -132v-206h-140v700h140v-199q0 -14 -1 -57.5t-1 -53.5q8 14 55 71l196 239h169l-205 -242z" />
    <glyph glyph-name="L" unicode="L" horiz-adv-x="620" 
d="M581 0h-491v700h140v-562h351v-138z" />
    <glyph glyph-name="M" unicode="M" horiz-adv-x="835" 
d="M745 0h-140v257q0 20 1 81t1 73q-37 -90 -49 -116l-142 -311l-142 311q-12 26 -49 116q0 -12 1 -73t1 -81v-257h-137v700h135l146 -317q32 -70 48 -117q20 61 47 117l141 317h138v-700z" />
    <glyph glyph-name="N" unicode="N" horiz-adv-x="747" 
d="M657 0h-125l-257 382q-47 74 -49 79q0 -12 1 -71.5t1 -81.5v-308h-138v700h134l248 -370q47 -74 49 -79q0 12 -1 71.5t-1 81.5v296h138v-700z" />
    <glyph glyph-name="O" unicode="O" horiz-adv-x="719" 
d="M668 351q0 -167 -85.5 -264.5t-223.5 -97.5q-139 0 -223.5 96.5t-84.5 263.5q0 168 85 265t225 97q138 0 222.5 -96.5t84.5 -263.5zM524 349q0 105 -45 164t-121 59q-75 0 -119 -57.5t-44 -163.5q0 -105 45 -164t121 -59q75 0 119 57.5t44 163.5z" />
    <glyph glyph-name="P" unicode="P" horiz-adv-x="680" 
d="M637 478q0 -117 -69 -173.5t-184 -56.5h-154v-248h-140v700h306q105 0 173 -57.5t68 -164.5zM493 475q0 89 -102 89h-161v-180h163q100 0 100 91z" />
    <glyph glyph-name="Q" unicode="Q" horiz-adv-x="714" 
d="M661 350q0 -169 -95 -269l52 -76l-107 -70l-50 73q-45 -19 -104 -19q-142 0 -223 99.5t-81 261.5t81 261.5t223 99.5t223 -99.5t81 -261.5zM517 350q0 100 -39.5 161t-120.5 61t-120.5 -61t-39.5 -161q0 -102 41 -165.5t122 -63.5q9 0 23 2l-47 70l107 70l45 -67
q29 49 29 154z" />
    <glyph glyph-name="R" unicode="R" horiz-adv-x="714" 
d="M657 0h-161l-125 252h-141v-252h-140v700h326q105 0 173 -57.5t68 -164.5q0 -153 -134 -206zM513 475q0 89 -100 89h-183v-180h183q100 0 100 91z" />
    <glyph glyph-name="S" unicode="S" horiz-adv-x="661" 
d="M603 212q0 -104 -68.5 -163.5t-206.5 -59.5q-88 0 -160 34t-112 93l101 90q69 -80 179 -80q63 0 92.5 18t29.5 58q0 34 -30 53.5t-126 41.5q-54 13 -89.5 26.5t-67.5 37t-47 59.5t-15 86q0 94 71.5 149.5t178.5 55.5q148 0 255 -110l-101 -98q-69 72 -159 72
q-52 0 -76 -18.5t-24 -44.5q0 -33 27.5 -48.5t113.5 -35.5q40 -9 67.5 -17.5t62 -26t55 -38.5t35 -55.5t14.5 -78.5z" />
    <glyph glyph-name="T" unicode="T" horiz-adv-x="632" 
d="M587 562h-201v-562h-140v562h-201v138h542v-138z" />
    <glyph glyph-name="U" unicode="U" horiz-adv-x="737" 
d="M652 309q0 -153 -74.5 -236.5t-209.5 -83.5q-129 0 -206 84t-77 234v393h140v-391q0 -85 38 -134t105 -49t105.5 48t38.5 133v393h140v-391z" />
    <glyph glyph-name="V" unicode="V" horiz-adv-x="714" 
d="M674 700l-249 -700h-136l-249 700h155l132 -405q19 -58 33 -115q20 77 32 115l129 405h153z" />
    <glyph glyph-name="W" unicode="W" horiz-adv-x="881" 
d="M831 700l-146 -700h-137l-86 360q-15 58 -24 120q-7 -58 -23 -120l-88 -360h-131l-146 700h146l61 -341q11 -53 17 -115q7 41 24 115l82 341h122l83 -341q17 -74 24 -115q7 68 17 115l61 341h144z" />
    <glyph glyph-name="X" unicode="X" horiz-adv-x="702" 
d="M657 0h-167l-63 106q-72 129 -76 137q-35 -71 -76 -137l-63 -106h-167l222 358l-212 342h167l53 -90q72 -129 76 -137q28 53 76 137l53 90h167l-213 -342z" />
    <glyph glyph-name="Y" unicode="Y" horiz-adv-x="714" 
d="M692 700l-265 -423v-277h-140v274l-265 426h161l99 -166q72 -129 76 -137q28 53 76 137l99 166h159z" />
    <glyph glyph-name="Z" unicode="Z" horiz-adv-x="688" 
d="M620 0h-552v124l301 359q38 49 80 91q-12 0 -66 -1t-76 -1h-219v128h527v-124l-298 -359q-38 -49 -80 -91q12 0 66 1t76 1h241v-128z" />
    <glyph glyph-name="bracketleft" unicode="[" horiz-adv-x="415" 
d="M352 -110h-257v810h257v-110h-122v-590h122v-110z" />
    <glyph glyph-name="backslash" unicode="\" horiz-adv-x="470" 
d="M466 -90h-136l-326 880h136z" />
    <glyph glyph-name="bracketright" unicode="]" horiz-adv-x="415" 
d="M320 -110h-257v110h122v590h-122v110h257v-810z" />
    <glyph glyph-name="asciicircum" unicode="^" horiz-adv-x="578" 
d="M531 382h-142l-101 186l-101 -186h-140l187 318h110z" />
    <glyph glyph-name="underscore" unicode="_" horiz-adv-x="500" 
d="M500 -187h-500v115h500v-115z" />
    <glyph glyph-name="grave" unicode="`" horiz-adv-x="500" 
d="M362 595h-117l-145 160h175z" />
    <glyph glyph-name="a" unicode="a" horiz-adv-x="556" 
d="M494 0h-138v35q-43 -46 -118 -46q-80 0 -138 48.5t-58 138.5q0 84 59.5 129t153.5 45q57 0 101 -21v26q0 29 -19 48t-56 19q-46 0 -76.5 -7.5t-67.5 -27.5l-53 96q92 53 197 53q97 0 155 -48.5t58 -135.5v-352zM356 154v66q-35 22 -96 22q-80 0 -80 -66q0 -31 19.5 -50.5
t60.5 -19.5q32 0 58 14t38 34z" />
    <glyph glyph-name="b" unicode="b" horiz-adv-x="562" 
d="M520 256q0 -120 -54 -193.5t-150 -73.5q-66 0 -111 41v-30h-138v660l138 69v-237q52 44 111 44q90 0 147 -70t57 -210zM380 253q0 153 -90 153q-52 0 -85 -44v-198q33 -45 93 -45q82 0 82 134z" />
    <glyph glyph-name="c" unicode="c" horiz-adv-x="537" 
d="M501 106q-42 -57 -92 -87t-123 -30q-104 0 -175 77t-71 196q0 120 71 197t181 77q133 0 208 -116l-91 -92q-26 37 -53.5 56t-66.5 19q-50 0 -79.5 -38t-29.5 -103q0 -63 29.5 -101.5t79.5 -38.5q39 0 67 16t57 51z" />
    <glyph glyph-name="d" unicode="d" horiz-adv-x="562" 
d="M493 0h-138v33q-52 -44 -111 -44q-90 0 -147 70t-57 210q0 120 54 193.5t150 73.5q66 0 111 -41v165l138 69v-729zM355 163v198q-33 45 -93 45q-82 0 -82 -134q0 -153 90 -153q52 0 85 44z" />
    <glyph glyph-name="e" unicode="e" horiz-adv-x="538" 
d="M495 262q0 -22 -2 -44h-314q3 -50 34 -74.5t74 -24.5q58 0 90 37l98 -82q-32 -40 -82.5 -62.5t-105.5 -22.5q-113 0 -180 74.5t-67 198.5q0 120 67 197t167 77q102 0 161.5 -78.5t59.5 -195.5zM361 322q-4 40 -27.5 67t-66.5 27q-37 0 -59.5 -26.5t-26.5 -67.5h180z" />
    <glyph glyph-name="f" unicode="f" horiz-adv-x="370" 
d="M338 600q-24 11 -48 11q-30 0 -40.5 -9.5t-10.5 -32.5v-44h89v-130h-89v-395h-138v395h-63v130h63v63q0 72 38 105t112 33q51 0 87 -15v-111z" />
    <glyph glyph-name="g" unicode="g" horiz-adv-x="562" 
d="M493 89q0 -138 -47 -203t-179 -79l-49 104q81 12 109 36.5t28 85.5q-52 -44 -111 -44q-90 0 -147 70t-57 210q0 120 54 193.5t150 73.5q66 0 111 -41v30h138v-436zM355 163v198q-33 45 -93 45q-82 0 -82 -134q0 -153 90 -153q52 0 85 44z" />
    <glyph glyph-name="h" unicode="h" horiz-adv-x="584" 
d="M522 0h-138v284q0 67 -22 94.5t-67 27.5t-67.5 -27t-22.5 -92v-287h-138v660l138 69v-239q44 46 123 46q97 0 145.5 -63t48.5 -177v-296z" />
    <glyph glyph-name="i" unicode="i" horiz-adv-x="282" 
d="M220 647q0 -32 -23.5 -55.5t-55.5 -23.5t-55.5 23.5t-23.5 55.5t23.5 55.5t55.5 23.5t55.5 -23.5t23.5 -55.5zM210 0h-138v525h138v-525z" />
    <glyph glyph-name="j" unicode="j" horiz-adv-x="282" 
d="M220 647q0 -32 -23.5 -55.5t-55.5 -23.5t-55.5 23.5t-23.5 55.5t23.5 55.5t55.5 23.5t55.5 -23.5t23.5 -55.5zM210 39q0 -112 -43.5 -162t-162.5 -70l-48 106q72 14 94 36.5t22 83.5v492h138v-486z" />
    <glyph glyph-name="k" unicode="k" horiz-adv-x="551" 
d="M523 0h-151l-100 242l-67 -83v-159h-138v660l138 69v-279q0 -17 -1 -58.5t-1 -53.5q49 68 56 77l85 110h163l-135 -167z" />
    <glyph glyph-name="l" unicode="l" horiz-adv-x="282" 
d="M210 0h-138v660l138 69v-729z" />
    <glyph glyph-name="m" unicode="m" horiz-adv-x="881" 
d="M819 0h-138v284q0 68 -20 95t-64 27t-64.5 -26.5t-20.5 -92.5v-287h-138v284q0 68 -20 95t-64 27t-64.5 -26.5t-20.5 -92.5v-287h-138v525h138v-35q44 46 115 46q50 0 82.5 -15.5t62.5 -51.5q65 67 167 67q187 0 187 -240v-296z" />
    <glyph glyph-name="n" unicode="n" horiz-adv-x="584" 
d="M522 0h-138v284q0 67 -22 94.5t-67 27.5t-67.5 -27t-22.5 -92v-287h-138v525h138v-35q44 46 123 46q97 0 145.5 -63t48.5 -177v-296z" />
    <glyph glyph-name="o" unicode="o" horiz-adv-x="555" 
d="M515 262q0 -120 -67.5 -196.5t-170.5 -76.5t-170 76.5t-67 196.5t67 197t170 77t170.5 -77t67.5 -197zM375 262q0 63 -25 102t-73 39t-72.5 -38.5t-24.5 -102.5t24.5 -102t72.5 -38t73 40.5t25 99.5z" />
    <glyph glyph-name="p" unicode="p" horiz-adv-x="562" 
d="M520 256q0 -120 -54 -193.5t-150 -73.5q-66 0 -111 41v-154l-138 -69v718h138v-33q52 44 111 44q90 0 147 -70t57 -210zM380 253q0 153 -90 153q-52 0 -85 -44v-198q33 -45 93 -45q82 0 82 134z" />
    <glyph glyph-name="q" unicode="q" horiz-adv-x="562" 
d="M493 -124l-138 -69v226q-52 -44 -111 -44q-90 0 -147 70t-57 210q0 120 54 193.5t150 73.5q66 0 111 -41v30h138v-649zM355 163v198q-33 45 -93 45q-82 0 -82 -134q0 -153 90 -153q52 0 85 44z" />
    <glyph glyph-name="r" unicode="r" horiz-adv-x="428" 
d="M410 499l-36 -135q-39 34 -80 34q-44 0 -66.5 -25t-22.5 -89v-284h-138v525h138v-35q44 46 108 46q60 0 97 -37z" />
    <glyph glyph-name="s" unicode="s" horiz-adv-x="537" 
d="M482 153q0 -85 -59 -124.5t-155 -39.5q-128 0 -220 61l46 105q87 -48 182 -48q40 0 55 9.5t15 30.5q0 18 -16.5 29t-60.5 24t-70.5 22.5t-56 25t-45 32.5t-25.5 42t-10 58q0 79 56.5 117.5t153.5 38.5q102 0 194 -51l-44 -109q-78 42 -153 42q-40 0 -55.5 -8t-15.5 -26
q0 -16 20.5 -28t88.5 -33q43 -15 68 -26t53 -30.5t41 -47.5t13 -66z" />
    <glyph glyph-name="t" unicode="t" horiz-adv-x="442" 
d="M380 161l-20 -140q-39 -32 -107 -32q-63 0 -101.5 44t-38.5 114v248h-88v130h88v135l138 69v-204h126v-130h-126v-211q0 -36 12.5 -49.5t38.5 -13.5q30 0 78 40z" />
    <glyph glyph-name="u" unicode="u" horiz-adv-x="584" 
d="M517 0h-138v35q-44 -46 -123 -46q-98 0 -146 62.5t-48 177.5v296h138v-284q0 -67 22 -94.5t67 -27.5t67.5 27t22.5 92v287h138v-525z" />
    <glyph glyph-name="v" unicode="v" horiz-adv-x="570" 
d="M545 525l-189 -525h-142l-189 525h152l77 -243q6 -18 33 -115q16 60 33 115l77 243h148z" />
    <glyph glyph-name="w" unicode="w" horiz-adv-x="742" 
d="M717 525l-151 -525h-115l-52 206q-23 83 -28 124q-19 -91 -28 -124l-52 -206h-115l-151 525h140l46 -194l25 -120q5 35 28 120l52 194h114l52 -194q23 -85 28 -120q1 11 5.5 31.5t10.5 47t9 41.5l46 194h136z" />
    <glyph glyph-name="x" unicode="x" horiz-adv-x="574" 
d="M552 0h-164l-53 87q-12 20 -48 85q-11 -25 -48 -85l-53 -87h-164l186 284l-158 241h164l25 -43q12 -20 48 -85q36 65 48 85l25 43h164l-158 -241z" />
    <glyph glyph-name="y" unicode="y" horiz-adv-x="590" 
d="M565 525l-270 -710h-136l70 185l-204 525h152l86 -253q7 -19 34 -115q20 76 34 115l86 253h148z" />
    <glyph glyph-name="z" unicode="z" horiz-adv-x="554" 
d="M494 0h-434v100l191 227q37 44 66 75q-8 0 -40 -1t-46 -1h-154v125h417v-100l-185 -227q-26 -33 -65 -75q8 0 40 1t46 1h164v-125z" />
    <glyph glyph-name="braceleft" unicode="{" horiz-adv-x="460" 
d="M407 -110q-136 0 -200.5 52.5t-64.5 158.5v71q0 69 -60 69h-22v112h22q60 0 60 69v72q0 106 64.5 158.5t200.5 52.5v-91q-73 -8 -99 -37t-26 -93v-31q0 -77 -21.5 -109t-73.5 -47q52 -15 73.5 -47t21.5 -109v-30q0 -64 26 -93t99 -37v-91z" />
    <glyph glyph-name="bar" unicode="|" horiz-adv-x="285" 
d="M205 -185h-125v985h125v-985z" />
    <glyph glyph-name="braceright" unicode="}" horiz-adv-x="460" 
d="M400 242h-22q-60 0 -60 -69v-72q0 -106 -64.5 -158.5t-200.5 -52.5v91q73 8 99 37t26 93v31q0 77 21.5 109t73.5 47q-52 15 -73.5 47t-21.5 109v30q0 64 -26 93t-99 37v91q136 0 200.5 -52.5t64.5 -158.5v-71q0 -69 60 -69h22v-112z" />
    <glyph glyph-name="asciitilde" unicode="~" horiz-adv-x="562" 
d="M520 424q-29 -75 -64.5 -113t-88.5 -38q-47 0 -96 34q-58 40 -78 40q-21 0 -32 -12t-37 -59l-82 42q29 75 64.5 113t88.5 38q47 0 96 -34q59 -40 78 -40q20 0 33 13t36 58z" />
    <glyph glyph-name="uni00A0" unicode="&#xa0;" horiz-adv-x="145" 
 />
    <glyph glyph-name="exclamdown" unicode="&#xa1;" horiz-adv-x="500" 
d="M442 755l-122 -160h-140l-122 160h93l100 -75l100 75h91z" />
    <glyph glyph-name="cent" unicode="&#xa2;" horiz-adv-x="500" 
d="M437 755q-11 -76 -60.5 -118t-127.5 -42q-79 0 -127 41.5t-59 118.5h84q19 -65 104 -65q47 0 71 15.5t34 49.5h81z" />
    <glyph glyph-name="sterling" unicode="&#xa3;" horiz-adv-x="670" 
d="M624 616l-84 -103q-70 63 -173 63q-49 0 -75 -18t-26 -50q0 -26 25 -70q22 -38 27 -55h153v-113h-143q-6 -78 -66 -150h348v-120h-522v102q85 69 97 168h-97v113h79q-4 9 -13 24.5t-12 20.5q-29 54 -29 99q0 88 67 136t189 48q149 0 255 -95z" />
    <glyph glyph-name="currency" unicode="&#xa4;" horiz-adv-x="638" 
d="M203 470h203v-92h-218q-1 -9 -1 -29q0 -19 1 -28h218v-92h-203q38 -108 142 -108q48 0 78.5 22.5t63.5 74.5l114 -68q-45 -75 -105 -118t-153 -43q-138 0 -215.5 99t-77.5 262q0 168 80.5 264.5t214.5 96.5q99 0 153 -42t95 -135l-118 -57q-26 54 -54.5 78t-77.5 24
q-105 0 -140 -109z" />
    <glyph glyph-name="yen" unicode="&#xa5;" horiz-adv-x="684" 
d="M662 700l-253 -428v-49h163v-118h-163v-105h-134v105h-163v118h163v46l-253 431h161l92 -166q51 -91 68 -137q23 56 68 137l92 166h159z" />
    <glyph glyph-name="brokenbar" unicode="&#xa6;" 
d="M780 350l-168 -132q-16 -9 -28 -2q-18 10 -12 36l20 45h-141v-124l48 19q22 8 33 -11q8 -14 -3 -28l-129 -168l-132 168q-10 15 -2 28q12 19 35 11l46 -19v124h-139l20 -46q8 -23 -12 -35q-12 -7 -27 2l-169 132l169 129q14 11 27 3q18 -10 12 -33l-20 -48h139v126
l-46 -19q-21 -9 -35 11q-8 13 2 28l132 168l129 -168q11 -14 3 -28q-11 -19 -33 -11l-48 19v-126h141l-20 48q-6 23 12 33q12 7 28 -3z" />
    <glyph glyph-name="section" unicode="&#xa7;" horiz-adv-x="700" 
d="M645 251q0 -107 -110 -165q20 -34 20 -87q0 -72 -54.5 -117.5t-153.5 -45.5q-122 0 -215 68l69 96q71 -49 155 -49q70 0 70 47q0 23 -29 38t-137 50q-106 34 -155.5 80.5t-49.5 129.5q0 108 109 165q-19 34 -19 87q0 72 54.5 117.5t153.5 45.5q122 0 215 -68l-69 -96
q-71 49 -155 49q-70 0 -70 -47q0 -24 29 -38.5t137 -49.5q108 -38 156.5 -82.5t48.5 -127.5zM511 241q0 26 -22 46.5t-42.5 29t-66.5 24.5q-5 2 -8 3q-77 26 -119 46q-64 -28 -64 -84q0 -26 22 -46.5t42.5 -29t66.5 -24.5q5 -2 8 -3q77 -26 119 -46q64 28 64 84z" />
    <glyph glyph-name="dieresis" unicode="&#xa8;" horiz-adv-x="500" 
d="M436 672q0 -31 -23 -54t-54 -23q-32 0 -55.5 23.5t-23.5 53.5q0 32 23.5 55t55.5 23q31 0 54 -23t23 -55zM220 672q0 -31 -23 -54t-55 -23t-55 23t-23 54q0 33 23 55.5t55 22.5t55 -22.5t23 -55.5z" />
    <glyph glyph-name="copyright" unicode="&#xa9;" horiz-adv-x="836" 
d="M779 350q0 -154 -103.5 -257.5t-257.5 -103.5t-257.5 103.5t-103.5 257.5t103.5 257.5t257.5 103.5t257.5 -103.5t103.5 -257.5zM715 350q0 127 -85 212t-212 85t-212 -85t-85 -212t85 -212t212 -85t212 85t85 212zM568 469l-79 -44q-25 44 -66 44q-79 0 -79 -117
q0 -56 21 -86t59 -30q39 0 71 51l70 -48q-26 -45 -59 -67.5t-84 -22.5q-78 0 -125 55t-47 148q0 90 49 147t125 57q101 0 144 -87z" />
    <glyph glyph-name="ordfeminine" unicode="&#xaa;" horiz-adv-x="477" 
d="M415 276h-109v31q-37 -39 -98 -39q-65 0 -112 39t-47 112q0 67 48.5 104t124.5 37q48 0 84 -17v21q0 24 -16.5 40t-46.5 16q-68 0 -118 -29l-42 78q76 42 160 42q79 0 125.5 -39t46.5 -110v-286zM306 401v55q-30 17 -80 17q-67 0 -67 -54q0 -26 16.5 -42.5t50.5 -16.5
q25 0 47 12.5t33 28.5z" />
    <glyph glyph-name="guillemotleft" unicode="&#xab;" horiz-adv-x="628" 
d="M588 0h-143l-163 262l163 263h143l-158 -262zM336 0h-143l-163 262l163 263h143l-158 -262z" />
    <glyph glyph-name="logicalnot" unicode="&#xac;" horiz-adv-x="650" 
d="M630 347l-203 -153q-21 -13 -36 -2q-22 16 -13 42l14 47h-347v130h347l-14 49q-7 26 13 40q16 12 36 -3z" />
    <glyph glyph-name="registered" unicode="&#xae;" horiz-adv-x="836" 
d="M779 350q0 -154 -103.5 -257.5t-257.5 -103.5t-257.5 103.5t-103.5 257.5t103.5 257.5t257.5 103.5t257.5 -103.5t103.5 -257.5zM715 350q0 127 -85 212t-212 85t-212 -85t-85 -212t85 -212t212 -85t212 85t85 212zM590 430q0 -86 -78 -115l76 -155h-94l-71 144h-68v-144
h-83v394h183q60 0 97.5 -31.5t37.5 -92.5zM505 428q0 50 -56 50h-94v-101h94q56 0 56 51z" />
    <glyph glyph-name="macron" unicode="&#xaf;" horiz-adv-x="500" 
d="M395 610h-290v105h290v-105z" />
    <glyph glyph-name="degree" unicode="&#xb0;" horiz-adv-x="486" 
d="M441 514q0 -85 -57 -142t-141 -57q-83 0 -140.5 57.5t-57.5 141.5q0 82 57.5 139.5t140.5 57.5q84 0 141 -57.5t57 -139.5zM336 514q0 39 -27 66t-66 27t-66 -27.5t-27 -65.5q0 -41 27 -68t66 -27q40 0 66.5 27t26.5 68z" />
    <glyph glyph-name="plusminus" unicode="&#xb1;" 
d="M780 350l-168 -132q-16 -9 -28 -2q-18 10 -12 36l20 45h-141v-124l48 19q22 8 33 -11q8 -14 -3 -28l-129 -168l-132 168q-10 15 -2 28q12 19 35 11l46 -19v124h-139l20 -46q8 -23 -12 -35q-12 -7 -27 2l-169 132l169 129q14 11 27 3q18 -10 12 -33l-20 -48h139v126
l-46 -19q-21 -9 -35 11q-8 13 2 28l132 168l129 -168q11 -14 3 -28q-11 -19 -33 -11l-48 19v-126h141l-20 48q-6 23 12 33q12 7 28 -3z" />
    <glyph glyph-name="uni00B2" unicode="&#xb2;" horiz-adv-x="500" 
d="M379 -146q-62 -47 -126 -47q-100 0 -100 83q0 60 76 110h60q-31 -34 -41 -55t-10 -44q0 -14 10 -22.5t25 -8.5q37 0 80 24z" />
    <glyph glyph-name="threesuperior" unicode="&#xb3;" 
d="M780 350l-168 -132q-17 -9 -28 -2q-18 11 -12 36l20 45h-141v-124l48 19q22 7 33 -11q7 -12 -3 -28l-129 -168l-132 168q-9 16 -2 28q12 18 35 11l46 -19v124h-139l20 -46q7 -23 -12 -35q-11 -7 -27 2l-169 132l169 129q15 10 27 3q18 -10 12 -33l-20 -48h139v126
l-46 -19q-22 -8 -35 11q-7 12 2 28l132 168l129 -168q10 -16 3 -28q-11 -18 -33 -11l-48 19v-126h141l-20 48q-6 23 12 33q12 7 28 -3z" />
    <glyph glyph-name="acute" unicode="&#xb4;" horiz-adv-x="500" 
d="M400 755l-145 -160h-117l87 160h175z" />
    <glyph glyph-name="mu" unicode="&#xb5;" 
d="M780 347l-203 -153q-21 -13 -36 -2q-22 16 -13 42l14 47h-284l14 -49q7 -26 -13 -40q-16 -12 -36 3l-203 150l203 153q21 13 36 2q22 -16 13 -42l-14 -47h284l-14 49q-7 26 13 40q16 12 36 -3z" />
    <glyph glyph-name="paragraph" unicode="&#xb6;" horiz-adv-x="724" 
d="M635 -185h-114v779h-64v-779h-114v446h-69q-97 0 -162 59t-65 161q0 101 65.5 160t161.5 59h361v-885z" />
    <glyph glyph-name="periodcentered" unicode="&#xb7;" horiz-adv-x="272" 
d="M230 367q0 -38 -28 -66t-66 -28t-66 28t-28 66t28 66t66 28t66 -28t28 -66z" />
    <glyph glyph-name="cedilla" unicode="&#xb8;" horiz-adv-x="500" 
d="M377 -106q0 -87 -119 -87q-73 0 -131 36l21 38q46 -24 89 -24q54 0 54 34q0 26 -31 26q-15 0 -30 -7l-36 14l27 113h56l-17 -79q14 7 39 7q34 0 56 -18t22 -53z" />
    <glyph glyph-name="onesuperior" unicode="&#xb9;" 
d="M780 350l-168 -132q-17 -9 -28 -2q-18 11 -12 36l20 45h-141v-124l48 19q22 7 33 -11q7 -12 -3 -28l-129 -168l-132 168q-9 16 -2 28q12 18 35 11l46 -19v124h-139l20 -46q7 -23 -12 -35q-11 -7 -27 2l-169 132l169 129q15 10 27 3q18 -10 12 -33l-20 -48h139v126
l-46 -19q-22 -8 -35 11q-7 12 2 28l132 168l129 -168q10 -16 3 -28q-11 -18 -33 -11l-48 19v-126h141l-20 48q-6 23 12 33q12 7 28 -3z" />
    <glyph glyph-name="ordmasculine" unicode="&#xba;" horiz-adv-x="491" 
d="M438 489q0 -98 -54.5 -159.5t-138.5 -61.5t-138 61.5t-54 159.5q0 97 54 159.5t138 62.5t138.5 -62.5t54.5 -159.5zM324 489q0 51 -20.5 82.5t-58.5 31.5q-39 0 -59 -31t-20 -83t20 -82.5t59 -30.5q38 0 58.5 33t20.5 80z" />
    <glyph glyph-name="guillemotright" unicode="&#xbb;" horiz-adv-x="628" 
d="M598 263l-163 -263h-143l158 262l-158 263h143zM346 263l-163 -263h-143l158 262l-158 263h143z" />
    <glyph glyph-name="onequarter" unicode="&#xbc;" 
d="M780 350l-168 -132q-16 -9 -28 -2q-18 10 -12 36l20 45h-141v-124l48 19q22 8 33 -11q8 -14 -3 -28l-129 -168l-132 168q-10 15 -2 28q12 19 35 11l46 -19v124h-139l20 -46q8 -23 -12 -35q-12 -7 -27 2l-169 132l169 129q14 11 27 3q18 -10 12 -33l-20 -48h139v126
l-46 -19q-21 -9 -35 11q-8 13 2 28l132 168l129 -168q11 -14 3 -28q-11 -19 -33 -11l-48 19v-126h141l-20 48q-6 23 12 33q12 7 28 -3z" />
    <glyph glyph-name="onehalf" unicode="&#xbd;" horiz-adv-x="500" 
d="M514 755l-145 -160h-117l87 160h175zM294 755l-145 -160h-117l87 160h175z" />
    <glyph glyph-name="threequarters" unicode="&#xbe;" 
d="M780 350l-168 -132q-16 -9 -28 -2q-18 10 -12 36l20 45h-141v-124l48 19q22 8 33 -11q8 -14 -3 -28l-129 -168l-132 168q-10 15 -2 28q12 19 35 11l46 -19v124h-139l20 -46q8 -23 -12 -35q-12 -7 -27 2l-169 132l169 129q14 11 27 3q18 -10 12 -33l-20 -48h139v126
l-46 -19q-21 -9 -35 11q-8 13 2 28l132 168l129 -168q11 -14 3 -28q-11 -19 -33 -11l-48 19v-126h141l-20 48q-6 23 12 33q12 7 28 -3z" />
    <glyph glyph-name="questiondown" unicode="&#xbf;" horiz-adv-x="584" 
d="M400 626q0 -34 -25 -59.5t-60 -25.5t-60 25.5t-25 59.5t25 59.5t60 25.5t60 -25.5t25 -59.5zM562 105q-111 -116 -265 -116q-119 0 -189 51.5t-70 152.5q0 117 101 165q63 30 84.5 54t23.5 68h137q0 -75 -30 -122t-111 -84q-38 -17 -51.5 -32.5t-13.5 -42.5
q0 -73 119 -73q96 0 175 84z" />
    <glyph glyph-name="Agrave" unicode="&#xc0;" horiz-adv-x="750" 
d="M710 0h-154l-55 156h-256l-55 -156h-150l268 700h136zM453 289l-45 127q-23 63 -35 109q-12 -46 -35 -109l-45 -127h160zM447 745h-117l-145 160h175z" />
    <glyph glyph-name="Aacute" unicode="&#xc1;" horiz-adv-x="750" 
d="M710 0h-154l-55 156h-256l-55 -156h-150l268 700h136zM453 289l-45 127q-23 63 -35 109q-12 -46 -35 -109l-45 -127h160zM555 905l-145 -160h-117l87 160h175z" />
    <glyph glyph-name="Acircumflex" unicode="&#xc2;" horiz-adv-x="750" 
d="M710 0h-154l-55 156h-256l-55 -156h-150l268 700h136zM453 289l-45 127q-23 63 -35 109q-12 -46 -35 -109l-45 -127h160zM566 745h-93l-100 75l-100 -75h-91l122 160h140z" />
    <glyph glyph-name="Atilde" unicode="&#xc3;" horiz-adv-x="750" 
d="M710 0h-154l-55 156h-256l-55 -156h-150l268 700h136zM453 289l-45 127q-23 63 -35 109q-12 -46 -35 -109l-45 -127h160zM573 886q0 -66 -31.5 -105t-83.5 -39q-30 0 -50 6.5t-51 24.5q-36 20 -52 20q-14 0 -21.5 -10.5t-12.5 -37.5h-90q0 66 31.5 105t83.5 39
q30 0 50 -6.5t51 -24.5q36 -20 52 -20q14 0 21.5 10.5t12.5 37.5h90z" />
    <glyph glyph-name="Adieresis" unicode="&#xc4;" horiz-adv-x="750" 
d="M710 0h-154l-55 156h-256l-55 -156h-150l268 700h136zM453 289l-45 127q-23 63 -35 109q-12 -46 -35 -109l-45 -127h160zM560 822q0 -31 -23 -54t-54 -23q-32 0 -55.5 23.5t-23.5 53.5q0 32 23.5 55t55.5 23q31 0 54 -23t23 -55zM344 822q0 -31 -23 -54t-55 -23t-55 23
t-23 54q0 33 23 55.5t55 22.5t55 -22.5t23 -55.5z" />
    <glyph glyph-name="Aring" unicode="&#xc5;" horiz-adv-x="750" 
d="M710 0h-154l-55 156h-256l-55 -156h-150l246 643q-45 39 -45 102q0 57 39 96t96 39t96 -39t39 -96q0 -64 -46 -102zM435 745q0 26 -17 43t-42 17t-42 -17t-17 -43t17 -43t42 -17t42 17t17 43zM453 289l-45 127q-23 63 -35 109q-12 -46 -35 -109l-45 -127h160z" />
    <glyph glyph-name="AE" unicode="&#xc6;" horiz-adv-x="1038" 
d="M979 0h-475v125h-249l-81 -125h-160l470 700h480v-134h-326v-126h181v-132h-181v-174h341v-134zM506 522q-28 -56 -80 -134l-91 -140h169v128q0 22 1 78t1 68z" />
    <glyph glyph-name="Ccedilla" unicode="&#xc7;" horiz-adv-x="670" 
d="M620 556l-130 -60q-40 76 -128 76q-77 0 -121 -61t-44 -161q0 -97 44.5 -159.5t121.5 -62.5q47 0 78 20.5t59 68.5l118 -70q-74 -154 -251 -158l-7 -31q14 7 39 7q34 0 56 -18t22 -53q0 -87 -119 -87q-73 0 -131 36l21 38q46 -24 89 -24q54 0 54 34q0 26 -31 26
q-15 0 -30 -7l-36 14l16 68q-118 18 -187.5 113t-69.5 245q0 160 87 260.5t224 100.5q179 0 256 -155z" />
    <glyph glyph-name="Egrave" unicode="&#xc8;" horiz-adv-x="650" 
d="M591 0h-501v700h486v-137h-346v-121h201v-136h-201v-169h361v-137zM409 745h-117l-145 160h175z" />
    <glyph glyph-name="Eacute" unicode="&#xc9;" horiz-adv-x="650" 
d="M591 0h-501v700h486v-137h-346v-121h201v-136h-201v-169h361v-137zM517 905l-145 -160h-117l87 160h175z" />
    <glyph glyph-name="Ecircumflex" unicode="&#xca;" horiz-adv-x="650" 
d="M591 0h-501v700h486v-137h-346v-121h201v-136h-201v-169h361v-137zM528 745h-93l-100 75l-100 -75h-91l122 160h140z" />
    <glyph glyph-name="Edieresis" unicode="&#xcb;" horiz-adv-x="650" 
d="M591 0h-501v700h486v-137h-346v-121h201v-136h-201v-169h361v-137zM522 822q0 -31 -23 -54t-54 -23q-32 0 -55.5 23.5t-23.5 53.5q0 32 23.5 55t55.5 23q31 0 54 -23t23 -55zM306 822q0 -31 -23 -54t-55 -23t-55 23t-23 54q0 33 23 55.5t55 22.5t55 -22.5t23 -55.5z" />
    <glyph glyph-name="Igrave" unicode="&#xcc;" horiz-adv-x="340" 
d="M240 0h-140v700h140v-700zM233 745h-117l-145 160h175z" />
    <glyph glyph-name="Iacute" unicode="&#xcd;" horiz-adv-x="340" 
d="M240 0h-140v700h140v-700zM361 905l-145 -160h-117l87 160h175z" />
    <glyph glyph-name="Icircumflex" unicode="&#xce;" horiz-adv-x="340" 
d="M240 0h-140v700h140v-700zM362 735h-93l-100 75l-100 -75h-91l122 160h140z" />
    <glyph glyph-name="Idieresis" unicode="&#xcf;" horiz-adv-x="340" 
d="M240 0h-140v700h140v-700zM356 817q0 -31 -23 -54t-54 -23q-32 0 -55.5 23.5t-23.5 53.5q0 32 23.5 55t55.5 23q31 0 54 -23t23 -55zM140 817q0 -31 -23 -54t-55 -23t-55 23t-23 54q0 33 23 55.5t55 22.5t55 -22.5t23 -55.5z" />
    <glyph glyph-name="Eth" unicode="&#xd0;" horiz-adv-x="722" 
d="M672 350q0 -72 -20 -131t-54 -99t-80 -67.5t-97.5 -40t-106.5 -12.5h-209v308h-65v115h65v277h219q160 0 254 -84t94 -266zM528 350q0 109 -50 161.5t-159 52.5h-78v-141h94v-115h-94v-172h73q107 0 160.5 57t53.5 157z" />
    <glyph glyph-name="Ntilde" unicode="&#xd1;" horiz-adv-x="747" 
d="M657 0h-125l-257 382q-40 62 -49 79q0 -11 1 -71.5t1 -81.5v-308h-138v700h134l248 -370q40 -62 49 -79q0 11 -1 71.5t-1 81.5v296h138v-700zM573 886q0 -66 -31.5 -105t-83.5 -39q-30 0 -49.5 6.5t-51.5 24.5q-35 20 -52 20q-26 0 -34 -48h-90q0 66 31.5 105t83.5 39
q30 0 49.5 -6.5t51.5 -24.5q35 -20 52 -20q26 0 34 48h90z" />
    <glyph glyph-name="Ograve" unicode="&#xd2;" horiz-adv-x="719" 
d="M668 351q0 -167 -85.5 -264.5t-223.5 -97.5q-139 0 -223.5 96.5t-84.5 263.5q0 168 85 265t225 97q138 0 222.5 -96.5t84.5 -263.5zM524 349q0 105 -45 164t-121 59q-75 0 -119 -57.5t-44 -163.5q0 -105 45 -164t121 -59q75 0 119 57.5t44 163.5zM428 745h-117l-145 160
h175z" />
    <glyph glyph-name="Oacute" unicode="&#xd3;" horiz-adv-x="719" 
d="M668 351q0 -167 -85.5 -264.5t-223.5 -97.5q-139 0 -223.5 96.5t-84.5 263.5q0 168 85 265t225 97q138 0 222.5 -96.5t84.5 -263.5zM524 349q0 105 -45 164t-121 59q-75 0 -119 -57.5t-44 -163.5q0 -105 45 -164t121 -59q75 0 119 57.5t44 163.5zM517 905l-145 -160h-117
l87 160h175z" />
    <glyph glyph-name="Ocircumflex" unicode="&#xd4;" horiz-adv-x="719" 
d="M668 351q0 -167 -85.5 -264.5t-223.5 -97.5q-139 0 -223.5 96.5t-84.5 263.5q0 168 85 265t225 97q138 0 222.5 -96.5t84.5 -263.5zM524 349q0 105 -45 164t-121 59q-75 0 -119 -57.5t-44 -163.5q0 -105 45 -164t121 -59q75 0 119 57.5t44 163.5zM547 740h-93l-100 75
l-100 -75h-91l122 160h140z" />
    <glyph glyph-name="Otilde" unicode="&#xd5;" horiz-adv-x="719" 
d="M668 351q0 -167 -85.5 -264.5t-223.5 -97.5q-139 0 -223.5 96.5t-84.5 263.5q0 168 85 265t225 97q138 0 222.5 -96.5t84.5 -263.5zM524 349q0 105 -45 164t-121 59q-75 0 -119 -57.5t-44 -163.5q0 -105 45 -164t121 -59q75 0 119 57.5t44 163.5zM554 886
q0 -66 -31.5 -105t-83.5 -39q-30 0 -50 6.5t-51 24.5q-36 20 -52 20q-14 0 -21.5 -10.5t-12.5 -37.5h-90q0 66 31.5 105t83.5 39q30 0 50 -6.5t51 -24.5q36 -20 52 -20q14 0 21.5 10.5t12.5 37.5h90z" />
    <glyph glyph-name="Odieresis" unicode="&#xd6;" horiz-adv-x="719" 
d="M668 351q0 -167 -85.5 -264.5t-223.5 -97.5q-139 0 -223.5 96.5t-84.5 263.5q0 168 85 265t225 97q138 0 222.5 -96.5t84.5 -263.5zM524 349q0 105 -45 164t-121 59q-75 0 -119 -57.5t-44 -163.5q0 -105 45 -164t121 -59q75 0 119 57.5t44 163.5zM541 822q0 -31 -23 -54
t-54 -23q-32 0 -55.5 23.5t-23.5 53.5q0 32 23.5 55t55.5 23q31 0 54 -23t23 -55zM325 822q0 -31 -23 -54t-55 -23t-55 23t-23 54q0 33 23 55.5t55 22.5t55 -22.5t23 -55.5z" />
    <glyph glyph-name="multiply" unicode="&#xd7;" 
d="M780 350l-168 -132q-16 -9 -28 -2q-18 10 -12 36l20 45h-141v-124l48 19q22 8 33 -11q8 -14 -3 -28l-129 -168l-132 168q-10 15 -2 28q12 19 35 11l46 -19v124h-139l20 -46q8 -23 -12 -35q-12 -7 -27 2l-169 132l169 129q14 11 27 3q18 -10 12 -33l-20 -48h139v126
l-46 -19q-21 -9 -35 11q-8 13 2 28l132 168l129 -168q11 -14 3 -28q-11 -19 -33 -11l-48 19v-126h141l-20 48q-6 23 12 33q12 7 28 -3z" />
    <glyph glyph-name="Oslash" unicode="&#xd8;" horiz-adv-x="719" 
d="M661 350q0 -162 -81 -261.5t-223 -99.5q-52 0 -103 19l-28 -58h-132l61 124q-102 102 -102 276q0 162 81 261.5t223 99.5q53 0 99 -18l28 57h132l-59 -122q104 -104 104 -278zM398 574q-22 5 -41 5q-83 0 -124 -63t-41 -166q0 -87 27 -142zM522 350q0 90 -30 147
l-180 -370q21 -6 45 -6q83 0 124 63t41 166z" />
    <glyph glyph-name="Ugrave" unicode="&#xd9;" horiz-adv-x="737" 
d="M652 309q0 -153 -74.5 -236.5t-209.5 -83.5q-129 0 -206 84t-77 234v393h140v-391q0 -85 38 -134t105 -49t105.5 48t38.5 133v393h140v-391zM443 730h-117l-145 160h175z" />
    <glyph glyph-name="Uacute" unicode="&#xda;" horiz-adv-x="737" 
d="M652 309q0 -153 -74.5 -236.5t-209.5 -83.5q-129 0 -206 84t-77 234v393h140v-391q0 -85 38 -134t105 -49t105.5 48t38.5 133v393h140v-391zM551 890l-145 -160h-117l87 160h175z" />
    <glyph glyph-name="Ucircumflex" unicode="&#xdb;" horiz-adv-x="737" 
d="M652 309q0 -153 -74.5 -236.5t-209.5 -83.5q-129 0 -206 84t-77 234v393h140v-391q0 -85 38 -134t105 -49t105.5 48t38.5 133v393h140v-391zM562 745h-93l-100 75l-100 -75h-91l122 160h140z" />
    <glyph glyph-name="Udieresis" unicode="&#xdc;" horiz-adv-x="737" 
d="M652 309q0 -153 -74.5 -236.5t-209.5 -83.5q-129 0 -206 84t-77 234v393h140v-391q0 -85 38 -134t105 -49t105.5 48t38.5 133v393h140v-391zM555 822q0 -31 -23 -54t-54 -23q-32 0 -55.5 23.5t-23.5 53.5q0 32 23.5 55t55.5 23q31 0 54 -23t23 -55zM339 822
q0 -31 -23 -54t-55 -23t-55 23t-23 54q0 33 23 55.5t55 22.5t55 -22.5t23 -55.5z" />
    <glyph glyph-name="Yacute" unicode="&#xdd;" horiz-adv-x="714" 
d="M692 700l-265 -423v-277h-140v274l-265 426h161l99 -166q72 -129 76 -137q28 53 76 137l99 166h159zM539 895l-145 -160h-117l87 160h175z" />
    <glyph glyph-name="Thorn" unicode="&#xde;" horiz-adv-x="680" 
d="M637 370q0 -117 -69 -173.5t-184 -56.5h-154v-140h-140v700h140v-108h166q105 0 173 -57.5t68 -164.5zM493 367q0 89 -102 89h-161v-180h163q100 0 100 91z" />
    <glyph glyph-name="germandbls" unicode="&#xdf;" horiz-adv-x="586" 
d="M546 221q0 -221 -243 -221h-22v125h18q107 0 107 96q0 112 -119 112h-6v120h5q31 0 48.5 19.5t17.5 53.5q0 32 -18.5 51t-56.5 19q-42 0 -57 -20t-15 -62v-638l-138 -69v714q0 205 212 205q92 0 152.5 -49t60.5 -136q0 -107 -93 -139q64 -14 105.5 -57.5t41.5 -123.5z
" />
    <glyph glyph-name="agrave" unicode="&#xe0;" horiz-adv-x="556" 
d="M494 0h-138v35q-43 -46 -118 -46q-80 0 -138 48.5t-58 138.5q0 84 59.5 129t153.5 45q57 0 101 -21v26q0 29 -19 48t-56 19q-46 0 -76.5 -7.5t-67.5 -27.5l-53 96q92 53 197 53q97 0 155 -48.5t58 -135.5v-352zM356 154v66q-35 22 -96 22q-80 0 -80 -66q0 -31 19.5 -50.5
t60.5 -19.5q32 0 58 14t38 34zM351 595h-117l-145 160h175z" />
    <glyph glyph-name="aacute" unicode="&#xe1;" horiz-adv-x="556" 
d="M494 0h-138v35q-43 -46 -118 -46q-80 0 -138 48.5t-58 138.5q0 84 59.5 129t153.5 45q57 0 101 -21v26q0 29 -19 48t-56 19q-46 0 -76.5 -7.5t-67.5 -27.5l-53 96q92 53 197 53q97 0 155 -48.5t58 -135.5v-352zM356 154v66q-35 22 -96 22q-80 0 -80 -66q0 -31 19.5 -50.5
t60.5 -19.5q32 0 58 14t38 34zM459 755l-145 -160h-117l87 160h175z" />
    <glyph glyph-name="acircumflex" unicode="&#xe2;" horiz-adv-x="556" 
d="M494 0h-138v35q-43 -46 -118 -46q-80 0 -138 48.5t-58 138.5q0 84 59.5 129t153.5 45q57 0 101 -21v26q0 29 -19 48t-56 19q-46 0 -76.5 -7.5t-67.5 -27.5l-53 96q92 53 197 53q97 0 155 -48.5t58 -135.5v-352zM356 154v66q-35 22 -96 22q-80 0 -80 -66q0 -31 19.5 -50.5
t60.5 -19.5q32 0 58 14t38 34zM470 590h-93l-100 75l-100 -75h-91l122 160h140z" />
    <glyph glyph-name="atilde" unicode="&#xe3;" horiz-adv-x="556" 
d="M494 0h-138v35q-43 -46 -118 -46q-80 0 -138 48.5t-58 138.5q0 84 59.5 129t153.5 45q57 0 101 -21v26q0 29 -19 48t-56 19q-46 0 -76.5 -7.5t-67.5 -27.5l-53 96q92 53 197 53q97 0 155 -48.5t58 -135.5v-352zM356 154v66q-35 22 -96 22q-80 0 -80 -66q0 -31 19.5 -50.5
t60.5 -19.5q32 0 58 14t38 34zM477 736q0 -66 -31.5 -105t-83.5 -39q-30 0 -50 6.5t-51 24.5q-36 20 -52 20q-14 0 -21.5 -10.5t-12.5 -37.5h-90q0 66 31.5 105t83.5 39q30 0 50 -6.5t51 -24.5q36 -20 52 -20q14 0 21.5 10.5t12.5 37.5h90z" />
    <glyph glyph-name="adieresis" unicode="&#xe4;" horiz-adv-x="556" 
d="M494 0h-138v35q-43 -46 -118 -46q-80 0 -138 48.5t-58 138.5q0 84 59.5 129t153.5 45q57 0 101 -21v26q0 29 -19 48t-56 19q-46 0 -76.5 -7.5t-67.5 -27.5l-53 96q92 53 197 53q97 0 155 -48.5t58 -135.5v-352zM356 154v66q-35 22 -96 22q-80 0 -80 -66q0 -31 19.5 -50.5
t60.5 -19.5q32 0 58 14t38 34zM464 667q0 -31 -23 -54t-54 -23q-32 0 -55.5 23.5t-23.5 53.5q0 32 23.5 55t55.5 23q31 0 54 -23t23 -55zM248 667q0 -31 -23 -54t-55 -23t-55 23t-23 54q0 33 23 55.5t55 22.5t55 -22.5t23 -55.5z" />
    <glyph glyph-name="aring" unicode="&#xe5;" horiz-adv-x="556" 
d="M494 0h-138v35q-43 -46 -118 -46q-80 0 -138 48.5t-58 138.5q0 84 59.5 129t153.5 45q57 0 101 -21v26q0 29 -19 48t-56 19q-46 0 -76.5 -7.5t-67.5 -27.5l-53 96q92 53 197 53q97 0 155 -48.5t58 -135.5v-352zM356 154v66q-35 22 -96 22q-80 0 -80 -66q0 -31 19.5 -50.5
t60.5 -19.5q32 0 58 14t38 34zM413 728q0 -57 -39 -95t-96 -38t-96 38t-39 95t39 96t96 39t96 -39t39 -96zM337 728q0 26 -17 43t-42 17t-42 -17t-17 -43t17 -43t42 -17t42 17t17 43z" />
    <glyph glyph-name="ae" unicode="&#xe6;" horiz-adv-x="843" 
d="M800 262q0 -24 -2 -44h-314q3 -50 34.5 -74.5t73.5 -24.5q58 0 90 37l98 -82q-31 -40 -82.5 -62.5t-105.5 -22.5q-117 0 -184 80q-71 -80 -170 -80q-80 0 -138 48.5t-58 138.5q0 84 59.5 129t153.5 45q59 0 101 -21v26q0 29 -19.5 48t-55.5 19q-46 0 -76.5 -7.5
t-67.5 -27.5l-53 96q92 53 197 53q103 0 158 -61q56 61 140 61q102 0 161.5 -78.5t59.5 -195.5zM666 322q-3 39 -27 66.5t-67 27.5q-36 0 -59 -26.5t-27 -67.5h180zM356 154v66q-35 22 -96 22q-80 0 -80 -66q0 -31 19.5 -50.5t60.5 -19.5q32 0 58 14t38 34z" />
    <glyph glyph-name="ccedilla" unicode="&#xe7;" horiz-adv-x="537" 
d="M501 106q-83 -111 -198 -117l-7 -31q14 7 39 7q34 0 56 -18t22 -53q0 -87 -119 -87q-73 0 -131 36l21 38q46 -24 89 -24q54 0 54 34q0 26 -31 26q-15 0 -30 -7l-36 14l16 68q-90 14 -148 88.5t-58 181.5q0 120 71 197t181 77q133 0 208 -116l-91 -92q-26 37 -53.5 56
t-66.5 19q-50 0 -79.5 -38t-29.5 -103q0 -63 29.5 -101.5t79.5 -38.5q39 0 67 16t57 51z" />
    <glyph glyph-name="egrave" unicode="&#xe8;" horiz-adv-x="538" 
d="M495 262q0 -22 -2 -44h-314q3 -50 34 -74.5t74 -24.5q58 0 90 37l98 -82q-32 -40 -82.5 -62.5t-105.5 -22.5q-113 0 -180 74.5t-67 198.5q0 120 67 197t167 77q102 0 161.5 -78.5t59.5 -195.5zM361 322q-4 40 -27.5 67t-66.5 27q-37 0 -59.5 -26.5t-26.5 -67.5h180z
M346 595h-117l-145 160h175z" />
    <glyph glyph-name="eacute" unicode="&#xe9;" horiz-adv-x="538" 
d="M495 262q0 -22 -2 -44h-314q3 -50 34 -74.5t74 -24.5q58 0 90 37l98 -82q-32 -40 -82.5 -62.5t-105.5 -22.5q-113 0 -180 74.5t-67 198.5q0 120 67 197t167 77q102 0 161.5 -78.5t59.5 -195.5zM361 322q-4 40 -27.5 67t-66.5 27q-37 0 -59.5 -26.5t-26.5 -67.5h180z
M454 755l-145 -160h-117l87 160h175z" />
    <glyph glyph-name="ecircumflex" unicode="&#xea;" horiz-adv-x="538" 
d="M495 262q0 -24 -2 -44h-314q3 -50 34.5 -74.5t73.5 -24.5q58 0 90 37l98 -82q-31 -40 -82.5 -62.5t-105.5 -22.5q-113 0 -180 74t-67 199q0 120 66.5 197t167.5 77q102 0 161.5 -78.5t59.5 -195.5zM361 322q-3 39 -27 66.5t-67 27.5q-36 0 -59 -26.5t-27 -67.5h180z
M465 585h-93l-100 75l-100 -75h-91l122 160h140z" />
    <glyph glyph-name="edieresis" unicode="&#xeb;" horiz-adv-x="538" 
d="M495 262q0 -22 -2 -44h-314q3 -50 34 -74.5t74 -24.5q58 0 90 37l98 -82q-32 -40 -82.5 -62.5t-105.5 -22.5q-113 0 -180 74.5t-67 198.5q0 120 67 197t167 77q102 0 161.5 -78.5t59.5 -195.5zM361 322q-4 40 -27.5 67t-66.5 27q-37 0 -59.5 -26.5t-26.5 -67.5h180z
M459 667q0 -31 -23 -54t-54 -23q-32 0 -55.5 23.5t-23.5 53.5q0 32 23.5 55t55.5 23q31 0 54 -23t23 -55zM243 667q0 -31 -23 -54t-55 -23t-55 23t-23 54q0 33 23 55.5t55 22.5t55 -22.5t23 -55.5z" />
    <glyph glyph-name="igrave" unicode="&#xec;" horiz-adv-x="282" 
d="M210 0h-138v525h138v-525zM206 595h-117l-145 160h175z" />
    <glyph glyph-name="iacute" unicode="&#xed;" horiz-adv-x="282" 
d="M210 0h-138v525h138v-525zM337 755l-145 -160h-117l87 160h175z" />
    <glyph glyph-name="icircumflex" unicode="&#xee;" horiz-adv-x="282" 
d="M210 0h-138v525h138v-525zM333 580h-93l-100 75l-100 -75h-91l122 160h140z" />
    <glyph glyph-name="idieresis" unicode="&#xef;" horiz-adv-x="282" 
d="M210 0h-138v525h138v-525zM327 662q0 -31 -23 -54t-54 -23q-32 0 -55.5 23.5t-23.5 53.5q0 32 23.5 55t55.5 23q31 0 54 -23t23 -55zM111 662q0 -31 -23 -54t-55 -23t-55 23t-23 54q0 33 23 55.5t55 22.5t55 -22.5t23 -55.5z" />
    <glyph glyph-name="eth" unicode="&#xf0;" horiz-adv-x="555" 
d="M515 282q0 -144 -65 -218.5t-173 -74.5q-103 0 -170 67.5t-67 175.5q0 106 63.5 175t153.5 69q69 0 124 -38q-16 67 -65 111l-47 -46l-64 57l36 35q-41 17 -87 21v95q94 -4 164 -40l41 40l64 -57l-34 -33q126 -116 126 -339zM380 232q0 56 -26.5 89.5t-76.5 33.5
t-76 -33.5t-26 -89.5t26 -88.5t76 -32.5q49 0 76 35t27 86z" />
    <glyph glyph-name="ntilde" unicode="&#xf1;" horiz-adv-x="584" 
d="M522 0h-138v284q0 68 -22 95t-67 27t-67.5 -27t-22.5 -92v-287h-138v525h138v-35q44 46 123 46q98 0 146 -63t48 -177v-296zM489 736q0 -66 -31.5 -105t-83.5 -39q-30 0 -49.5 6.5t-51.5 24.5q-35 20 -52 20q-26 0 -34 -48h-90q0 66 31.5 105t83.5 39q30 0 49.5 -6.5
t51.5 -24.5q35 -20 52 -20q26 0 34 48h90z" />
    <glyph glyph-name="ograve" unicode="&#xf2;" horiz-adv-x="555" 
d="M515 262q0 -120 -67.5 -196.5t-170.5 -76.5t-170 76.5t-67 196.5t67 197t170 77t170.5 -77t67.5 -197zM375 262q0 63 -25 102t-73 39t-72.5 -38.5t-24.5 -102.5t24.5 -102t72.5 -38t73 40.5t25 99.5zM350 595h-117l-145 160h175z" />
    <glyph glyph-name="oacute" unicode="&#xf3;" horiz-adv-x="555" 
d="M515 262q0 -120 -67.5 -196.5t-170.5 -76.5t-170 76.5t-67 196.5t67 197t170 77t170.5 -77t67.5 -197zM375 262q0 63 -25 102t-73 39t-72.5 -38.5t-24.5 -102.5t24.5 -102t72.5 -38t73 40.5t25 99.5zM447 755l-145 -160h-117l87 160h175z" />
    <glyph glyph-name="ocircumflex" unicode="&#xf4;" horiz-adv-x="555" 
d="M515 262q0 -120 -67.5 -196.5t-170.5 -76.5t-170 76.5t-67 196.5t67 197t170 77t170.5 -77t67.5 -197zM375 262q0 63 -25 102t-73 39t-72.5 -38.5t-24.5 -102.5t24.5 -102t72.5 -38t73 40.5t25 99.5zM469 585h-93l-100 75l-100 -75h-91l122 160h140z" />
    <glyph glyph-name="otilde" unicode="&#xf5;" horiz-adv-x="555" 
d="M515 262q0 -120 -67.5 -196.5t-170.5 -76.5t-170 76.5t-67 196.5t67 197t170 77t170.5 -77t67.5 -197zM375 262q0 63 -25 102t-73 39t-72.5 -38.5t-24.5 -102.5t24.5 -102t72.5 -38t73 40.5t25 99.5zM472 736q0 -66 -31.5 -105t-83.5 -39q-30 0 -50 6.5t-51 24.5
q-36 20 -52 20q-14 0 -21.5 -10.5t-12.5 -37.5h-90q0 66 31.5 105t83.5 39q30 0 50 -6.5t51 -24.5q36 -20 52 -20q14 0 21.5 10.5t12.5 37.5h90z" />
    <glyph glyph-name="odieresis" unicode="&#xf6;" horiz-adv-x="555" 
d="M515 262q0 -120 -67.5 -196.5t-170.5 -76.5t-170 76.5t-67 196.5t67 197t170 77t170.5 -77t67.5 -197zM375 262q0 63 -25 102t-73 39t-72.5 -38.5t-24.5 -102.5t24.5 -102t72.5 -38t73 40.5t25 99.5zM463 662q0 -31 -23 -54t-54 -23q-32 0 -55.5 23.5t-23.5 53.5
q0 32 23.5 55t55.5 23q31 0 54 -23t23 -55zM247 662q0 -31 -23 -54t-55 -23t-55 23t-23 54q0 33 23 55.5t55 22.5t55 -22.5t23 -55.5z" />
    <glyph glyph-name="divide" unicode="&#xf7;" 
d="M780 350l-168 -132q-16 -9 -28 -2q-18 10 -12 36l20 45h-141v-124l48 19q22 8 33 -11q8 -14 -3 -28l-129 -168l-132 168q-10 15 -2 28q12 19 35 11l46 -19v124h-139l20 -46q8 -23 -12 -35q-12 -7 -27 2l-169 132l169 129q14 11 27 3q18 -10 12 -33l-20 -48h139v126
l-46 -19q-21 -9 -35 11q-8 13 2 28l132 168l129 -168q11 -14 3 -28q-11 -19 -33 -11l-48 19v-126h141l-20 48q-6 23 12 33q12 7 28 -3z" />
    <glyph glyph-name="oslash" unicode="&#xf8;" horiz-adv-x="555" 
d="M515 262q0 -120 -67.5 -196.5t-170.5 -76.5q-37 0 -78 13l-27 -52h-123l60 113q-69 77 -69 199q0 120 67 197t170 77q43 0 76 -13l27 52h123l-59 -112q71 -77 71 -201zM303 419q-12 3 -26 3q-52 0 -79.5 -44.5t-27.5 -115.5q0 -45 10 -76zM385 262q0 44 -12 80l-124 -235
q11 -4 28 -4q52 0 80 47t28 112z" />
    <glyph glyph-name="ugrave" unicode="&#xf9;" horiz-adv-x="584" 
d="M517 0h-138v35q-44 -46 -123 -46q-98 0 -146 62.5t-48 177.5v296h138v-284q0 -67 22 -94.5t67 -27.5t67.5 27t22.5 92v287h138v-525zM363 595h-117l-145 160h175z" />
    <glyph glyph-name="uacute" unicode="&#xfa;" horiz-adv-x="584" 
d="M517 0h-138v35q-44 -46 -123 -46q-98 0 -146 62.5t-48 177.5v296h138v-284q0 -67 22 -94.5t67 -27.5t67.5 27t22.5 92v287h138v-525zM471 755l-145 -160h-117l87 160h175z" />
    <glyph glyph-name="ucircumflex" unicode="&#xfb;" horiz-adv-x="584" 
d="M517 0h-138v35q-44 -46 -123 -46q-98 0 -146 62.5t-48 177.5v296h138v-284q0 -67 22 -94.5t67 -27.5t67.5 27t22.5 92v287h138v-525zM482 595h-93l-100 75l-100 -75h-91l122 160h140z" />
    <glyph glyph-name="udieresis" unicode="&#xfc;" horiz-adv-x="584" 
d="M517 0h-138v35q-44 -46 -123 -46q-98 0 -146 62.5t-48 177.5v296h138v-284q0 -67 22 -94.5t67 -27.5t67.5 27t22.5 92v287h138v-525zM476 672q0 -31 -23 -54t-54 -23q-32 0 -55.5 23.5t-23.5 53.5q0 32 23.5 55t55.5 23q31 0 54 -23t23 -55zM260 672q0 -31 -23 -54
t-55 -23t-55 23t-23 54q0 33 23 55.5t55 22.5t55 -22.5t23 -55.5z" />
    <glyph glyph-name="yacute" unicode="&#xfd;" horiz-adv-x="590" 
d="M565 525l-270 -710h-136l70 185l-204 525h152l86 -253q7 -19 34 -115q20 76 34 115l86 253h148zM475 745l-145 -160h-117l87 160h175z" />
    <glyph glyph-name="thorn" unicode="&#xfe;" horiz-adv-x="562" 
d="M520 256q0 -120 -54 -193.5t-150 -73.5q-66 0 -111 41v-154l-138 -69v853l138 69v-237q52 44 111 44q90 0 147 -70t57 -210zM380 253q0 153 -90 153q-52 0 -85 -44v-198q33 -45 93 -45q82 0 82 134z" />
    <glyph glyph-name="ydieresis" unicode="&#xff;" horiz-adv-x="500" 
d="M327 672q0 -31 -23 -54t-54 -23q-32 0 -55.5 23.5t-23.5 53.5q0 32 23.5 55t55.5 23q31 0 54 -23t23 -55z" />
    <glyph glyph-name="Aogonek" unicode="&#x104;" horiz-adv-x="750" 
d="M555 2l-54 154h-256l-55 -156h-150l268 700h136l266 -700q-31 -18 -45.5 -40t0.5 -31.5t66 4.5v-114q-32 -11 -67 -11t-67 9.5t-52 37t-19 68.5q0 38 29 79zM453 289l-45 127q-23 63 -35 109q-12 -46 -35 -109l-45 -127h160z" />
    <glyph glyph-name="aogonek" unicode="&#x105;" horiz-adv-x="556" 
d="M356 24v11q-43 -46 -118 -46q-80 0 -138 48.5t-58 138.5q0 84 59.5 129t153.5 45q57 0 101 -21v26q0 29 -19 48t-56 19q-46 0 -76.5 -7.5t-67.5 -27.5l-53 96q92 53 197 53q97 0 155 -48.5t58 -135.5v-352q-31 -18 -45.5 -40t0.5 -31.5t66 4.5v-114q-32 -11 -67 -11
t-67 9.5t-52 37t-19 68.5q0 39 31 80zM356 154v66q-35 22 -96 22q-80 0 -80 -66q0 -31 19.5 -50.5t60.5 -19.5q32 0 58 14t38 34z" />
    <glyph glyph-name="Cacute" unicode="&#x106;" horiz-adv-x="670" 
d="M620 556l-130 -60q-40 76 -128 76q-77 0 -121 -61t-44 -161q0 -97 44.5 -159.5t121.5 -62.5q47 0 78 20.5t59 68.5l118 -70q-76 -158 -259 -158q-138 0 -222 98.5t-84 262.5q0 160 87 260.5t224 100.5q179 0 256 -155zM509 905l-145 -160h-117l87 160h175z" />
    <glyph glyph-name="cacute" unicode="&#x107;" horiz-adv-x="537" 
d="M501 106q-42 -57 -92 -87t-123 -30q-104 0 -175 77t-71 196q0 120 71 197t181 77q133 0 208 -116l-91 -92q-26 37 -53.5 56t-66.5 19q-50 0 -79.5 -38t-29.5 -103q0 -63 29.5 -101.5t79.5 -38.5q39 0 67 16t57 51zM438 755l-145 -160h-117l87 160h175z" />
    <glyph glyph-name="Eogonek" unicode="&#x118;" horiz-adv-x="650" 
d="M333 -76q1 38 28 76h-271v700h486v-137h-346v-121h201v-136h-201v-169h361v-137h-74q-31 -16 -45 -38.5t1 -32t65 4.5v-115q-32 -11 -67 -11t-67 10.5t-52 37.5t-19 68z" />
    <glyph glyph-name="eogonek" unicode="&#x119;" horiz-adv-x="538" 
d="M495 262q0 -22 -2 -44h-314q3 -50 34 -74.5t74 -24.5q58 0 90 37l98 -82q-27 -33 -69 -56q-23 -11 -44.5 -38t-21.5 -39q2 -30 73 -7v-115q-32 -11 -67 -11t-67 10.5t-52 37.5t-19 68q0 34 24 70q-90 17 -141 88t-51 180q0 120 67 197t167 77q102 0 161.5 -78.5
t59.5 -195.5zM361 322q-4 40 -27.5 67t-66.5 27q-37 0 -59.5 -26.5t-26.5 -67.5h180z" />
    <glyph glyph-name="dotlessi" unicode="&#x131;" horiz-adv-x="282" 
d="M210 0h-138v525h138v-525z" />
    <glyph glyph-name="Lslash" unicode="&#x141;" horiz-adv-x="635" 
d="M596 0h-491v252l-64 -45v119l64 45v329h138v-243l116 86v-119l-116 -86v-200h353v-138z" />
    <glyph glyph-name="lslash" unicode="&#x142;" horiz-adv-x="322" 
d="M287 370l-58 -40v-330h-136v256l-55 -35v118l55 35v286l136 69v-282l58 41v-118z" />
    <glyph glyph-name="Nacute" unicode="&#x143;" horiz-adv-x="747" 
d="M657 0h-125l-257 382q-47 74 -49 79q0 -12 1 -71.5t1 -81.5v-308h-138v700h134l248 -370q47 -74 49 -79q0 12 -1 71.5t-1 81.5v296h138v-700zM525 905l-145 -160h-117l87 160h175z" />
    <glyph glyph-name="nacute" unicode="&#x144;" horiz-adv-x="584" 
d="M522 0h-138v284q0 67 -22 94.5t-67 27.5t-67.5 -27t-22.5 -92v-287h-138v525h138v-35q44 46 123 46q97 0 145.5 -63t48.5 -177v-296zM438 755l-145 -160h-117l87 160h175z" />
    <glyph glyph-name="OE" unicode="&#x152;" horiz-adv-x="1055" 
d="M996 0h-471v63q-55 -74 -168 -74q-141 0 -222.5 99.5t-81.5 261.5t81.5 261.5t222.5 99.5q111 0 168 -74v63h456v-137h-336v-121h191v-136h-191v-169h351v-137zM517 350q0 100 -39.5 161t-120.5 61t-120.5 -61t-39.5 -161t39.5 -161t120.5 -61t120.5 61t39.5 161z" />
    <glyph glyph-name="oe" unicode="&#x153;" horiz-adv-x="860" 
d="M817 262q0 -24 -2 -44h-314q3 -50 34.5 -74.5t73.5 -24.5q58 0 90 37l98 -82q-31 -40 -82.5 -62.5t-105.5 -22.5q-112 0 -172 75q-51 -75 -160 -75q-103 0 -170 76.5t-67 196.5t67 197t170 77q108 0 161 -77q62 77 158 77q102 0 161.5 -78.5t59.5 -195.5zM683 322
q-3 39 -27 66.5t-67 27.5q-36 0 -59 -26.5t-27 -67.5h180zM375 262q0 63 -25 102t-73 39t-72.5 -38.5t-24.5 -102.5q0 -63 24.5 -101.5t72.5 -38.5q47 0 72.5 40.5t25.5 99.5z" />
    <glyph glyph-name="Sacute" unicode="&#x15a;" horiz-adv-x="661" 
d="M603 212q0 -104 -68.5 -163.5t-206.5 -59.5q-88 0 -160 34t-112 93l101 90q69 -80 179 -80q63 0 92.5 18t29.5 58q0 34 -30 53.5t-126 41.5q-54 13 -89.5 26.5t-67.5 37t-47 59.5t-15 86q0 94 71.5 149.5t178.5 55.5q148 0 255 -110l-101 -98q-69 72 -159 72
q-52 0 -76 -18.5t-24 -44.5q0 -33 27.5 -48.5t113.5 -35.5q40 -9 67.5 -17.5t62 -26t55 -38.5t35 -55.5t14.5 -78.5zM478 905l-145 -160h-117l87 160h175z" />
    <glyph glyph-name="sacute" unicode="&#x15b;" horiz-adv-x="537" 
d="M482 153q0 -85 -59 -124.5t-155 -39.5q-128 0 -220 61l46 105q87 -48 182 -48q40 0 55 9.5t15 30.5q0 18 -16.5 29t-60.5 24t-70.5 22.5t-56 25t-45 32.5t-25.5 42t-10 58q0 79 56.5 117.5t153.5 38.5q102 0 194 -51l-44 -109q-78 42 -153 42q-40 0 -55.5 -8t-15.5 -26
q0 -16 20.5 -28t88.5 -33q43 -15 68 -26t53 -30.5t41 -47.5t13 -66zM420 755l-145 -160h-117l87 160h175z" />
    <glyph glyph-name="Scaron" unicode="&#x160;" horiz-adv-x="661" 
d="M603 212q0 -104 -68.5 -163.5t-206.5 -59.5q-88 0 -160 34t-112 93l101 90q69 -80 179 -80q63 0 92.5 18t29.5 58q0 34 -30 53.5t-126 41.5q-54 13 -89.5 26.5t-67.5 37t-47 59.5t-15 86q0 94 71.5 149.5t178.5 55.5q148 0 255 -110l-101 -98q-69 72 -159 72
q-52 0 -76 -18.5t-24 -44.5q0 -33 27.5 -48.5t113.5 -35.5q40 -9 67.5 -17.5t62 -26t55 -38.5t35 -55.5t14.5 -78.5zM523 910l-122 -160h-140l-122 160h93l100 -75l100 75h91z" />
    <glyph glyph-name="scaron" unicode="&#x161;" horiz-adv-x="537" 
d="M482 153q0 -85 -59 -124.5t-155 -39.5q-128 0 -220 61l46 105q87 -48 182 -48q40 0 55 9.5t15 30.5q0 18 -16.5 29t-60.5 24t-70.5 22.5t-56 25t-45 32.5t-25.5 42t-10 58q0 79 56.5 117.5t153.5 38.5q102 0 194 -51l-44 -109q-78 42 -153 42q-40 0 -55.5 -8t-15.5 -26
q0 -16 20.5 -28t88.5 -33q43 -15 68 -26t53 -30.5t41 -47.5t13 -66zM453 755l-122 -160h-140l-122 160h93l100 -75l100 75h91z" />
    <glyph glyph-name="Ydieresis" unicode="&#x178;" horiz-adv-x="714" 
d="M692 700l-265 -423v-277h-140v274l-265 426h161l99 -166q47 -79 76 -137q27 55 76 137l99 166h159zM544 812q0 -31 -23 -54t-54 -23q-32 0 -55.5 23t-23.5 54q0 32 23.5 55t55.5 23q31 0 54 -23t23 -55zM328 812q0 -31 -23.5 -54t-54.5 -23t-54.5 23t-23.5 54q0 32 23 55
t55 23t55 -23t23 -55z" />
    <glyph glyph-name="Zacute" unicode="&#x179;" horiz-adv-x="688" 
d="M620 0h-552v124l301 359q38 49 80 91q-12 0 -66 -1t-76 -1h-219v128h527v-124l-298 -359q-38 -49 -80 -91q12 0 66 1t76 1h241v-128zM510 905l-145 -160h-117l87 160h175z" />
    <glyph glyph-name="zacute" unicode="&#x17a;" horiz-adv-x="554" 
d="M494 0h-434v100l191 227q37 44 66 75q-8 0 -40 -1t-46 -1h-154v125h417v-100l-185 -227q-26 -33 -65 -75q8 0 40 1t46 1h164v-125zM454 755l-145 -160h-117l87 160h175z" />
    <glyph glyph-name="Zdotaccent" unicode="&#x17b;" horiz-adv-x="688" 
d="M620 0h-552v124l301 359q38 49 80 91q-12 0 -66 -1t-76 -1h-219v128h527v-124l-298 -359q-38 -49 -80 -91q12 0 66 1t76 1h241v-128zM427 824q0 -32 -23.5 -55.5t-55.5 -23.5t-55.5 23.5t-23.5 55.5t23.5 55.5t55.5 23.5t55.5 -23.5t23.5 -55.5z" />
    <glyph glyph-name="zdotaccent" unicode="&#x17c;" horiz-adv-x="554" 
d="M494 0h-434v100l191 227q37 44 66 75q-8 0 -40 -1t-46 -1h-154v125h417v-100l-185 -227q-26 -33 -65 -75q8 0 40 1t46 1h164v-125zM375 647q0 -32 -23.5 -55.5t-55.5 -23.5t-55.5 23.5t-23.5 55.5t23.5 55.5t55.5 23.5t55.5 -23.5t23.5 -55.5z" />
    <glyph glyph-name="Zcaron" unicode="&#x17d;" horiz-adv-x="688" 
d="M620 0h-552v124l301 359q38 49 80 91q-12 0 -66 -1t-76 -1h-219v128h527v-124l-298 -359q-38 -49 -80 -91q12 0 66 1t76 1h241v-128zM534 905l-122 -160h-140l-122 160h93l100 -75l100 75h91z" />
    <glyph glyph-name="zcaron" unicode="&#x17e;" horiz-adv-x="554" 
d="M494 0h-434v100l191 227q37 44 66 75q-8 0 -40 -1t-46 -1h-154v125h417v-100l-185 -227q-26 -33 -65 -75q8 0 40 1t46 1h164v-125zM476 755l-122 -160h-140l-122 160h93l100 -75l100 75h91z" />
    <glyph glyph-name="florin" unicode="&#x192;" horiz-adv-x="417" 
d="M355 588q-24 11 -48 11q-30 0 -40.5 -9.5t-10.5 -32.5v-32h89v-127h-89v-522l-138 -69v591h-63v127h63v48q0 72 38 105t112 33q51 0 87 -15v-108z" />
    <glyph glyph-name="circumflex" unicode="&#x2c6;" horiz-adv-x="500" 
d="M442 595h-93l-100 75l-100 -75h-91l122 160h140z" />
    <glyph glyph-name="ring" unicode="&#x2da;" horiz-adv-x="500" 
d="M385 728q0 -57 -39 -95t-96 -38t-96 38t-39 95t39 96t96 39t96 -39t39 -96zM309 728q0 26 -17 43t-42 17t-42 -17t-17 -43t17 -43t42 -17t42 17t17 43z" />
    <glyph glyph-name="tilde" unicode="&#x2dc;" horiz-adv-x="500" 
d="M449 736q0 -66 -31.5 -105t-83.5 -39q-30 0 -50 6.5t-51 24.5q-36 20 -52 20q-14 0 -21.5 -10.5t-12.5 -37.5h-90q0 66 31.5 105t83.5 39q30 0 50 -6.5t51 -24.5q36 -20 52 -20q14 0 21.5 10.5t12.5 37.5h90z" />
    <glyph glyph-name="pi" unicode="&#x3c0;" horiz-adv-x="836" 
d="M779 350q0 -154 -103.5 -257.5t-257.5 -103.5t-257.5 103.5t-103.5 257.5t103.5 257.5t257.5 103.5t257.5 -103.5t103.5 -257.5zM715 350q0 127 -85 212t-212 85t-212 -85t-85 -212t85 -212t212 -85t212 85t85 212zM597 422q0 -64 -39 -96t-103 -32h-82v-141h-83v394h172
q59 0 97 -32.5t38 -92.5zM512 421q0 50 -56 50h-83v-103h83q56 0 56 53z" />
    <glyph glyph-name="endash" unicode="&#x2013;" horiz-adv-x="460" 
d="M405 299h-350v128h350v-128z" />
    <glyph glyph-name="emdash" unicode="&#x2014;" horiz-adv-x="620" 
d="M565 299h-510v128h510v-128z" />
    <glyph glyph-name="quoteleft" unicode="&#x2018;" horiz-adv-x="281" 
d="M220 700l-14 -281h-163l82 281h95z" />
    <glyph glyph-name="quoteright" unicode="&#x2019;" horiz-adv-x="281" 
d="M238 700l-82 -281h-95l14 281h163z" />
    <glyph glyph-name="quotesinglbase" unicode="&#x201a;" horiz-adv-x="281" 
d="M238 169l-82 -281h-95l14 281h163z" />
    <glyph glyph-name="quotedblleft" unicode="&#x201c;" horiz-adv-x="542" 
d="M481 700l-14 -281h-163l82 281h95zM220 700l-14 -281h-163l82 281h95z" />
    <glyph glyph-name="quotedblright" unicode="&#x201d;" horiz-adv-x="542" 
d="M499 700l-82 -281h-95l14 281h163zM238 700l-82 -281h-95l14 281h163z" />
    <glyph glyph-name="quotedblbase" unicode="&#x201e;" horiz-adv-x="542" 
d="M499 169l-82 -281h-95l14 281h163zM238 169l-82 -281h-95l14 281h163z" />
    <glyph glyph-name="dagger" unicode="&#x2020;" horiz-adv-x="594" 
d="M539 366h-174v-466h-136v466h-174v125h174v209h136v-209h174v-125z" />
    <glyph glyph-name="daggerdbl" unicode="&#x2021;" horiz-adv-x="594" 
d="M539 109h-176v-209h-132v209h-176v123h176v136h-176v123h176v209h132v-209h176v-123h-176v-136h176v-123z" />
    <glyph glyph-name="bullet" unicode="&#x2022;" horiz-adv-x="490" 
d="M425 366q0 -76 -52 -128t-128 -52t-128 52t-52 128t52 129t128 53t128 -53t52 -129z" />
    <glyph glyph-name="ellipsis" unicode="&#x2026;" horiz-adv-x="816" 
d="M774 83q0 -38 -28 -66t-66 -28t-66 28t-28 66t28 66t66 28t66 -28t28 -66zM502 83q0 -38 -28 -66t-66 -28t-66 28t-28 66t28 66t66 28t66 -28t28 -66zM230 83q0 -38 -28 -66t-66 -28t-66 28t-28 66t28 66t66 28t66 -28t28 -66z" />
    <glyph glyph-name="perthousand" unicode="&#x2030;" horiz-adv-x="1415" 
d="M407 494q0 -98 -52.5 -158t-133.5 -60t-132 58.5t-51 157.5q0 101 51 160t134 59q84 0 134 -58.5t50 -158.5zM774 700l-429 -700h-121l429 700h121zM1385 207q0 -98 -52.5 -158t-133.5 -60t-132 58.5t-51 157.5q0 101 51 160t134 59q84 0 134 -58.5t50 -158.5zM961 207
q0 -98 -52.5 -158t-133.5 -60t-132 58.5t-51 157.5q0 101 51 160t134 59q84 0 134 -58.5t50 -158.5zM295 492q0 126 -73 126q-72 0 -72 -124q0 -126 73 -126q35 0 53.5 33t18.5 91zM1273 205q0 126 -73 126q-72 0 -72 -124q0 -126 73 -126q35 0 53.5 33t18.5 91zM849 205
q0 126 -73 126q-72 0 -72 -124q0 -126 73 -126q35 0 53.5 33t18.5 91z" />
    <glyph glyph-name="guilsinglleft" unicode="&#x2039;" horiz-adv-x="376" 
d="M336 0h-143l-163 262l163 263h143l-158 -262z" />
    <glyph glyph-name="guilsinglright" unicode="&#x203a;" horiz-adv-x="376" 
d="M346 263l-163 -263h-143l158 262l-158 263h143z" />
    <glyph glyph-name="fraction" unicode="&#x2044;" horiz-adv-x="493" 
d="M555 700l-469 -700h-148l469 700h148z" />
    <glyph glyph-name="Euro" unicode="&#x20ac;" horiz-adv-x="638" 
d="M203 470h203v-92h-218q-1 -9 -1 -29q0 -19 1 -28h218v-92h-203q38 -108 142 -108q48 0 78.5 22.5t63.5 74.5l114 -68q-45 -75 -105 -118t-153 -43q-138 0 -215.5 99t-77.5 262q0 168 80.5 264.5t214.5 96.5q99 0 153 -42t95 -135l-118 -57q-26 54 -54.5 78t-77.5 24
q-105 0 -140 -109z" />
    <glyph glyph-name="trademark" unicode="&#x2122;" horiz-adv-x="830" 
d="M310 618h-98v-312h-95v312h-98v82h291v-82zM789 306h-89v195q0 7 1 22t1 22q-8 -20 -18 -38l-103 -213l-101 213q-1 1 -17 37q2 -30 2 -43v-195h-89v394h94l85 -170q23 -44 28 -65q5 17 28 65l83 170h95v-394z" />
    <glyph glyph-name="Omega" unicode="&#x2126;" horiz-adv-x="440" 
d="M374 476q-16 -22 -42 -13l-47 14v-477h-130v477l-49 -14q-26 -7 -40 13q-12 16 3 36l150 203l153 -203q13 -21 2 -36z" />
    <glyph glyph-name="partialdiff" unicode="&#x2202;" horiz-adv-x="440" 
d="M374 224q11 -15 -2 -36l-153 -203l-150 203q-15 20 -3 36q14 20 40 13l49 -14v254l-49 -14q-26 -7 -40 13q-12 16 3 36l150 203l153 -203q13 -21 2 -36q-16 -22 -42 -13l-47 14v-254l47 14q26 9 42 -13z" />
    <glyph glyph-name="Delta" unicode="&#x2206;" horiz-adv-x="650" 
d="M605 281h-347l14 -49q7 -26 -13 -40q-16 -12 -36 3l-203 150l203 153q21 13 36 2q22 -16 13 -42l-14 -47h347v-130z" />
    <glyph glyph-name="product" unicode="&#x220f;" 
d="M780 350l-168 -132q-16 -9 -28 -2q-18 10 -12 36l20 45h-141v-124l48 19q22 8 33 -11q8 -14 -3 -28l-129 -168l-132 168q-10 15 -2 28q12 19 35 11l46 -19v124h-139l20 -46q8 -23 -12 -35q-12 -7 -27 2l-169 132l169 129q14 11 27 3q18 -10 12 -33l-20 -48h139v126
l-46 -19q-21 -9 -35 11q-8 13 2 28l132 168l129 -168q11 -14 3 -28q-11 -19 -33 -11l-48 19v-126h141l-20 48q-6 23 12 33q12 7 28 -3z" />
    <glyph glyph-name="summation" unicode="&#x2211;" 
d="M780 350l-168 -132q-16 -9 -28 -2q-18 10 -12 36l20 45h-141v-124l48 19q22 8 33 -11q8 -14 -3 -28l-129 -168l-132 168q-10 15 -2 28q12 19 35 11l46 -19v124h-139l20 -46q8 -23 -12 -35q-12 -7 -27 2l-169 132l169 129q14 11 27 3q18 -10 12 -33l-20 -48h139v126
l-46 -19q-21 -9 -35 11q-8 13 2 28l132 168l129 -168q11 -14 3 -28q-11 -19 -33 -11l-48 19v-126h141l-20 48q-6 23 12 33q12 7 28 -3z" />
    <glyph glyph-name="minus" unicode="&#x2212;" 
d="M780 350l-168 -132q-16 -9 -28 -2q-18 10 -12 36l20 45h-141v-124l48 19q22 8 33 -11q8 -14 -3 -28l-129 -168l-132 168q-10 15 -2 28q12 19 35 11l46 -19v124h-139l20 -46q8 -23 -12 -35q-12 -7 -27 2l-169 132l169 129q14 11 27 3q18 -10 12 -33l-20 -48h139v126
l-46 -19q-21 -9 -35 11q-8 13 2 28l132 168l129 -168q11 -14 3 -28q-11 -19 -33 -11l-48 19v-126h141l-20 48q-6 23 12 33q12 7 28 -3z" />
    <glyph glyph-name="radical" unicode="&#x221a;" horiz-adv-x="677" 
d="M641 700l-281 -700h-149l-173 340h149l40 -81q32 -66 58 -129q14 46 48 133l163 437h145z" />
    <glyph glyph-name="integral" unicode="&#x222b;" horiz-adv-x="562" 
d="M493 0h-138v33q-44 -44 -111 -44q-90 0 -147 70t-57 210q0 120 54 193.5t150 73.5q66 0 111 -41v30h138v-525zM355 163v198q-33 45 -93 45q-82 0 -82 -134q0 -153 90 -153q52 0 85 44z" />
    <glyph glyph-name="approxequal" unicode="&#x2248;" horiz-adv-x="440" 
d="M374 224q11 -15 -2 -36l-153 -203l-150 203q-15 20 -3 36q14 20 40 13l49 -14v477h130v-477l47 14q26 9 42 -13z" />
    <glyph glyph-name="greaterequal" unicode="&#x2265;" 
d="M780 350l-168 -132q-16 -9 -28 -2q-18 10 -12 36l20 45h-141v-124l48 19q22 8 33 -11q8 -14 -3 -28l-129 -168l-132 168q-10 15 -2 28q12 19 35 11l46 -19v124h-139l20 -46q8 -23 -12 -35q-12 -7 -27 2l-169 132l169 129q14 11 27 3q18 -10 12 -33l-20 -48h139v126
l-46 -19q-21 -9 -35 11q-8 13 2 28l132 168l129 -168q11 -14 3 -28q-11 -19 -33 -11l-48 19v-126h141l-20 48q-6 23 12 33q12 7 28 -3z" />
    <glyph glyph-name="lozenge" unicode="&#x25ca;" 
d="M780 350l-168 -132q-16 -9 -28 -2q-18 10 -12 36l20 45h-141v-124l48 19q22 8 33 -11q8 -14 -3 -28l-129 -168l-132 168q-10 15 -2 28q12 19 35 11l46 -19v124h-139l20 -46q8 -23 -12 -35q-12 -7 -27 2l-169 132l169 129q14 11 27 3q18 -10 12 -33l-20 -48h139v126
l-46 -19q-21 -9 -35 11q-8 13 2 28l132 168l129 -168q11 -14 3 -28q-11 -19 -33 -11l-48 19v-126h141l-20 48q-6 23 12 33q12 7 28 -3z" />
    <glyph glyph-name="uniF8FF" unicode="&#xf8ff;" 
d="M780 350l-168 -132q-16 -9 -28 -2q-18 10 -12 36l20 45h-141v-124l48 19q22 8 33 -11q8 -14 -3 -28l-129 -168l-132 168q-10 15 -2 28q12 19 35 11l46 -19v124h-139l20 -46q8 -23 -12 -35q-12 -7 -27 2l-169 132l169 129q14 11 27 3q18 -10 12 -33l-20 -48h139v126
l-46 -19q-21 -9 -35 11q-8 13 2 28l132 168l129 -168q11 -14 3 -28q-11 -19 -33 -11l-48 19v-126h141l-20 48q-6 23 12 33q12 7 28 -3z" />
    <glyph glyph-name="fraction.001" horiz-adv-x="493" 
d="M555 700l-469 -700h-148l469 700h148z" />
    <glyph glyph-name="exclamdown.001" horiz-adv-x="340" 
d="M255 626q0 -35 -25 -60t-60 -25t-60 25t-25 60t25 60t60 25t60 -25t25 -60zM240 0h-140v288l23 192h94l23 -192v-288z" />
    <glyph glyph-name="Cent" horiz-adv-x="537" 
d="M501 200q-67 -92 -156 -111v-100h-135v106q-76 24 -123 94.5t-47 166.5q0 95 46 164.5t124 96.5v83h135v-75q96 -20 155 -111l-91 -86q-26 37 -53.5 56t-66.5 19q-51 0 -80 -38t-29 -109q0 -69 29 -107.5t80 -38.5q39 0 67 16t57 51z" />
    <glyph glyph-name="onehalf.001" 
d="M780 350l-168 -132q-16 -9 -28 -2q-18 10 -12 36l20 45h-141v-124l48 19q22 8 33 -11q8 -14 -3 -28l-129 -168l-132 168q-10 15 -2 28q12 19 35 11l46 -19v124h-139l20 -46q8 -23 -12 -35q-12 -7 -27 2l-169 132l169 129q14 11 27 3q18 -10 12 -33l-20 -48h139v126
l-46 -19q-21 -9 -35 11q-8 13 2 28l132 168l129 -168q11 -14 3 -28q-11 -19 -33 -11l-48 19v-126h141l-20 48q-6 23 12 33q12 7 28 -3z" />
    <glyph glyph-name="ydieresis.001" horiz-adv-x="590" 
d="M565 525l-270 -710h-136l70 185l-204 525h152l86 -253q7 -19 34 -115q20 76 34 115l86 253h148zM480 662q0 -31 -23 -54t-54 -23q-32 0 -55.5 23.5t-23.5 53.5q0 32 23.5 55t55.5 23q31 0 54 -23t23 -55zM264 662q0 -31 -23 -54t-55 -23t-55 23t-23 54q0 33 23 55.5
t55 22.5t55 -22.5t23 -55.5z" />
    </font>
</defs>
</svg>
